<?xml version="1.0" standalone="no"?>
<!DOCTYPE svg PUBLIC "-//W3C//DTD SVG 20010904//EN"
 "http://www.w3.org/TR/2001/REC-SVG-20010904/DTD/svg10.dtd">
<svg version="1.0" xmlns="http://www.w3.org/2000/svg"
 width="500.000000pt" height="500.000000pt" viewBox="0 0 500.000000 500.000000"
 preserveAspectRatio="xMidYMid meet">
<metadata>
Created by potrace 1.14, written by Peter Selinger 2001-2017
</metadata>
<g transform="translate(0.000000,500.000000) scale(0.100000,-0.100000)"
fill="#000000" stroke="none">
<path d="M3635 4269 c-112 -55 -231 -104 -265 -111 -8 -2 -17 -6 -20 -9 -11
-12 -202 -67 -221 -64 -11 2 -17 0 -14 -4 6 -11 -215 -64 -322 -76 -11 -2 -30
-6 -40 -9 -11 -4 -50 -8 -86 -10 -36 -2 -71 -7 -77 -11 -6 -3 -23 -6 -38 -5
-15 1 -29 1 -32 0 -18 -7 -100 -6 -89 1 8 5 9 9 3 9 -6 0 -14 -3 -18 -7 -4 -4
-72 -9 -152 -10 -114 -2 -144 0 -138 9 6 10 5 10 -8 1 -8 -7 -17 -11 -19 -9
-3 3 -32 6 -67 7 -34 1 -62 6 -62 11 0 5 -5 6 -10 3 -18 -11 -120 6 -113 19 4
8 3 8 -6 0 -13 -12 -164 13 -156 26 2 3 -10 4 -27 2 -23 -4 -29 -2 -23 8 5 8
4 11 -2 7 -15 -9 -74 3 -67 14 3 5 -1 6 -9 3 -13 -4 -106 23 -214 63 -24 9
-40 20 -36 26 3 5 2 7 -4 4 -12 -8 -73 14 -73 26 0 4 -4 5 -10 2 -5 -3 -10 -2
-10 2 0 5 -8 9 -19 9 -12 0 -17 -5 -13 -15 3 -9 1 -12 -6 -7 -6 3 -14 1 -18
-5 -5 -8 -3 -9 6 -4 10 6 12 4 7 -9 -4 -10 -7 -20 -7 -22 0 -3 -5 -2 -12 2 -8
5 -9 2 -5 -9 3 -10 2 -17 -3 -17 -6 0 -9 -3 -8 -7 4 -19 -15 -62 -25 -56 -6 4
-8 0 -4 -11 4 -10 -1 -23 -13 -33 -10 -9 -17 -20 -14 -24 7 -11 -43 -99 -51
-91 -5 4 -5 -1 -2 -10 4 -10 0 -21 -8 -25 -7 -5 -14 -11 -14 -16 -1 -16 -32
-67 -41 -67 -6 0 -9 -3 -9 -7 3 -21 -2 -33 -13 -27 -6 4 -8 3 -4 -4 3 -6 -1
-17 -9 -25 -8 -9 -15 -19 -15 -24 -1 -17 -57 -82 -65 -75 -5 4 -5 2 -2 -4 4
-6 -1 -20 -9 -30 -9 -10 -12 -12 -8 -4 5 10 4 12 -4 5 -5 -5 -12 -19 -14 -30
-2 -11 -9 -19 -15 -18 -6 1 -14 -9 -17 -23 -4 -14 -11 -22 -16 -19 -6 3 -10 0
-10 -7 0 -8 -14 -26 -31 -41 -17 -15 -28 -27 -23 -27 4 0 -24 -31 -62 -69 -38
-38 -73 -67 -78 -64 -5 4 -6 1 -3 -4 4 -6 -5 -19 -19 -29 -14 -11 -46 -38 -71
-61 -26 -23 -51 -39 -57 -36 -6 3 -8 3 -4 -2 4 -4 -5 -18 -21 -29 -34 -26 -28
-46 19 -66 16 -7 27 -16 24 -21 -3 -5 1 -6 8 -4 8 3 25 -5 38 -17 14 -13 26
-21 28 -19 5 6 62 -21 62 -30 0 -5 3 -8 8 -7 14 3 81 -35 76 -44 -3 -5 -2 -8
3 -6 16 4 82 -35 76 -45 -3 -6 -1 -7 4 -4 6 4 22 -4 37 -18 15 -13 29 -25 31
-25 18 0 116 -75 109 -84 -2 -3 -1 -4 2 -1 11 8 94 -57 87 -69 -3 -6 -3 -8 2
-4 11 10 76 -42 68 -56 -3 -6 -3 -8 2 -4 13 12 47 -12 41 -28 -4 -9 -2 -12 5
-8 13 7 61 -35 53 -48 -3 -5 0 -7 8 -6 7 2 12 -3 10 -10 -1 -6 3 -11 10 -10 7
2 12 -3 13 -9 0 -7 3 -12 7 -10 12 4 77 -66 71 -76 -3 -6 -2 -7 4 -4 13 8 56
-37 46 -47 -5 -4 -1 -6 7 -4 8 1 14 -4 15 -12 0 -8 7 -15 15 -15 8 -1 14 -7
12 -14 -1 -7 1 -10 6 -7 5 3 16 -4 25 -15 9 -10 13 -19 9 -19 -4 0 1 -5 11
-11 9 -6 14 -15 11 -21 -4 -6 -3 -8 3 -5 13 8 76 -60 68 -72 -5 -8 22 -36 34
-36 3 0 5 -4 3 -8 -1 -5 1 -6 6 -3 5 3 25 -15 45 -39 37 -44 47 -62 25 -49 -7
4 -8 3 -4 -5 4 -6 11 -9 16 -6 12 7 82 -83 74 -96 -4 -7 -3 -9 4 -5 13 8 66
-59 57 -74 -4 -6 -2 -9 3 -8 15 4 53 -43 45 -56 -3 -6 -3 -8 2 -4 11 10 56
-52 48 -65 -3 -6 -2 -8 3 -4 13 8 87 -100 78 -115 -4 -6 -3 -8 3 -5 11 7 80
-98 75 -115 -1 -5 1 -7 6 -4 5 3 16 -8 26 -25 9 -16 14 -29 10 -29 -4 0 0 -6
11 -13 11 -9 15 -19 10 -27 -5 -8 -4 -11 3 -6 13 8 36 -30 27 -44 -4 -6 -1 -9
7 -8 7 2 12 -5 12 -14 -1 -10 3 -15 9 -11 7 4 8 0 3 -13 -4 -10 -4 -15 0 -11
10 10 36 -31 28 -45 -4 -6 -3 -8 2 -5 13 8 67 -90 58 -106 -4 -6 -4 -9 1 -5
11 10 38 -29 30 -42 -3 -6 -2 -10 4 -10 6 0 20 -19 31 -42 24 -49 24 -51 8
-43 -7 4 -3 -2 8 -12 19 -16 74 -112 74 -128 0 -4 -6 -3 -12 0 -7 4 -5 0 6 -9
10 -8 15 -20 10 -27 -4 -7 -3 -10 3 -6 12 8 26 -20 17 -34 -3 -5 -1 -9 5 -9 6
0 7 -7 4 -17 -5 -12 -3 -14 7 -8 10 6 12 4 8 -7 -5 -11 0 -15 20 -14 14 1 27
8 29 16 4 13 3 13 -7 0 -9 -12 -10 -9 -5 13 4 21 3 27 -6 21 -9 -5 -10 -1 -7
14 4 14 2 20 -4 16 -6 -4 -8 2 -3 16 5 15 3 20 -3 16 -14 -8 -24 25 -16 50 5
16 4 17 -6 4 -10 -13 -11 -11 -7 8 3 14 1 20 -6 15 -6 -4 -8 2 -5 15 4 12 2
20 -3 16 -8 -4 -11 9 -8 32 0 4 -4 10 -9 13 -6 3 -12 15 -14 26 -1 11 -9 26
-16 34 -8 8 -11 22 -9 33 3 11 1 16 -6 11 -7 -4 -8 0 -4 11 4 9 3 15 -1 12 -4
-2 -12 7 -19 20 -6 13 -7 22 -2 18 5 -3 6 2 3 10 -3 9 -11 16 -16 16 -6 0 -7
7 -4 16 4 10 2 13 -6 8 -8 -5 -9 -2 -5 10 5 11 3 15 -5 10 -8 -5 -9 -2 -5 10
4 9 3 15 -1 12 -12 -7 -44 63 -36 76 5 7 2 8 -6 3 -10 -6 -12 -4 -7 9 5 11 3
15 -5 10 -8 -5 -9 -2 -5 10 5 11 3 15 -5 10 -8 -5 -9 -2 -5 10 4 9 3 15 -2 12
-11 -7 -23 22 -14 36 3 6 1 8 -4 5 -6 -4 -14 0 -17 9 -4 10 -2 13 7 9 6 -4 4
0 -7 9 -10 8 -15 20 -10 27 5 8 3 10 -6 4 -10 -6 -12 -4 -7 9 4 9 3 15 -2 12
-5 -3 -12 1 -15 10 -4 10 -2 13 7 8 6 -4 -1 5 -16 20 -16 15 -26 33 -23 41 3
8 0 17 -6 21 -7 5 -8 2 -4 -7 4 -8 0 -5 -8 6 -9 11 -14 25 -11 33 3 8 0 10 -7
6 -8 -5 -9 -2 -5 10 4 10 3 15 -3 11 -11 -7 -43 52 -35 66 4 5 1 8 -7 7 -7 -2
-13 5 -13 14 0 9 -4 20 -9 25 -5 5 -6 2 -1 -6 6 -10 4 -12 -4 -7 -7 5 -10 15
-6 24 3 9 3 13 -1 9 -10 -10 -36 31 -28 45 4 7 3 8 -4 4 -11 -7 -17 7 -12 29
1 5 -2 7 -6 3 -10 -11 -37 30 -28 44 4 6 3 8 -3 5 -11 -7 -46 39 -46 60 0 7
-4 10 -9 7 -4 -3 -9 0 -9 5 -1 6 -2 15 -3 20 0 5 -5 13 -10 18 -5 5 -6 2 -2
-7 4 -8 0 -6 -8 5 -9 11 -14 25 -11 33 2 7 1 11 -4 8 -13 -8 -34 21 -25 35 4
7 3 9 -3 6 -13 -8 -37 18 -29 32 3 5 -9 22 -27 38 -18 15 -26 24 -17 18 8 -5
-5 10 -28 33 -24 24 -40 47 -36 50 3 4 9 2 11 -5 3 -9 18 -11 49 -6 28 4 44 2
44 -5 0 -6 -5 -12 -12 -14 -6 -2 15 -13 48 -24 52 -18 59 -23 59 -47 0 -25 4
-29 23 -26 4 1 26 2 48 3 30 1 40 -3 37 -12 -4 -8 -13 -10 -27 -6 -11 3 -23 6
-26 6 -22 0 -29 -4 -24 -17 4 -11 2 -13 -9 -9 -8 3 -18 1 -21 -5 -4 -6 9 -13
29 -17 19 -3 32 -11 29 -16 -3 -5 -12 -7 -20 -4 -8 3 -11 0 -7 -10 5 -13 8
-13 29 1 27 17 38 19 29 5 -3 -6 0 -13 9 -16 21 -8 7 -37 -15 -31 -26 7 -34
-10 -9 -18 11 -3 20 -13 20 -21 0 -8 11 -19 25 -24 14 -5 25 -16 25 -25 0 -18
14 -19 40 -3 15 10 22 10 32 0 9 -9 9 -12 -2 -12 -10 0 -16 -12 -17 -37 l-2
-37 23 29 c15 19 25 24 30 17 4 -7 1 -12 -9 -12 -9 0 -13 -4 -10 -10 3 -5 -1
-23 -10 -39 -20 -39 -19 -44 4 -32 17 9 19 7 16 -17 -1 -15 -5 -36 -9 -47 -5
-12 0 -9 10 8 17 25 44 41 29 16 -5 -7 5 -8 29 -4 24 5 36 3 36 -4 0 -6 -8
-11 -17 -11 -16 -1 -16 -2 2 -17 20 -15 20 -15 -2 -10 -42 10 -34 -11 9 -26
26 -9 35 -16 23 -17 -19 -1 -19 -1 -2 -11 17 -10 17 -13 3 -34 -21 -32 -21
-52 -1 -35 10 9 29 10 62 4 l48 -8 -40 -7 c-35 -5 -37 -7 -17 -14 37 -12 25
-24 -15 -14 -52 12 -61 11 -39 -6 10 -7 15 -18 12 -23 -3 -5 21 -15 54 -22 33
-7 60 -17 60 -21 0 -5 -6 -9 -12 -9 -8 0 -4 -8 7 -17 15 -12 16 -14 3 -10 -12
4 -19 -3 -27 -25 -15 -41 -14 -71 1 -62 7 4 8 3 4 -4 -7 -12 10 -53 22 -51 4
1 22 -2 40 -6 27 -6 32 -11 26 -29 -3 -11 -8 -29 -10 -38 -3 -10 2 -19 13 -22
10 -3 29 -16 43 -28 14 -13 21 -20 16 -15 -15 11 -68 9 -61 -3 3 -5 15 -10 26
-10 10 0 19 -7 19 -15 0 -8 9 -15 20 -15 11 0 20 -4 20 -10 0 -5 -6 -10 -12
-10 -10 0 -9 -3 1 -9 9 -6 11 -18 7 -34 -3 -14 -1 -29 4 -32 8 -5 8 -11 1 -19
-13 -15 -4 -26 21 -26 10 0 18 -4 18 -8 0 -5 14 -9 31 -9 26 0 28 2 13 10 -17
10 -17 11 1 18 19 7 19 8 -2 15 -13 3 -21 10 -18 14 3 5 1 11 -5 15 -5 3 -10
12 -10 18 0 7 4 6 11 -3 8 -12 9 -8 7 15 -4 45 20 95 46 96 20 1 11 5 -51 24
-21 7 6 55 31 55 20 1 20 2 4 14 -21 16 -13 26 21 27 26 0 26 0 4 9 -28 11
-31 34 -4 25 24 -7 37 11 16 23 -14 7 -14 13 -4 35 9 20 20 27 40 27 21 0 27
4 23 15 -5 11 -1 14 12 9 18 -5 18 -5 0 10 -11 9 -26 16 -33 16 -7 0 -13 5
-13 10 0 6 5 10 11 10 5 0 8 4 5 9 -4 5 -3 11 1 13 5 1 19 25 32 51 15 30 29
46 37 43 7 -3 16 -1 19 4 4 6 1 10 -4 10 -6 0 -11 5 -11 10 0 6 7 10 15 10 8
0 12 6 9 14 -9 24 15 59 37 53 10 -3 21 -2 24 3 3 4 -5 10 -18 14 -17 5 -19 8
-9 15 8 4 12 12 11 17 -2 5 10 12 27 15 24 5 26 7 12 13 -10 5 -25 6 -33 3
-12 -5 -12 -2 -3 18 6 14 20 25 31 25 15 0 17 3 9 13 -14 16 1 42 18 32 9 -5
10 -2 6 12 -4 13 1 26 14 38 11 10 17 21 15 25 -3 4 3 14 12 21 12 10 14 10 9
2 -5 -9 1 -13 18 -13 14 0 26 5 26 11 0 6 -7 8 -16 5 -8 -3 -13 -2 -9 3 3 5 0
11 -6 13 -7 2 3 26 26 61 32 49 41 56 61 51 20 -5 24 -2 24 15 0 12 -4 21 -10
21 -5 0 -10 5 -10 10 0 6 11 10 25 10 14 0 25 5 25 11 0 6 -9 8 -22 4 -18 -5
-20 -4 -8 4 8 6 27 8 43 6 30 -6 38 10 8 18 -26 7 -20 41 7 45 24 4 29 17 10
25 -8 3 -5 6 5 6 10 1 15 6 12 11 -3 6 -2 10 3 10 11 0 126 -22 130 -25 1 -1
-34 -51 -79 -111 -46 -60 -116 -161 -157 -224 -41 -63 -103 -158 -137 -210
-85 -129 -205 -368 -205 -406 0 -37 33 -6 72 69 166 311 476 712 813 1052 329
332 649 576 978 745 l107 55 -28 25 c-15 14 -52 45 -82 70 -319 260 -582 602
-726 945 -20 50 -40 93 -43 96 -3 3 -60 -20 -126 -52z m167 -474 c124 -183
336 -422 481 -542 l49 -40 -54 -33 c-128 -81 -315 -227 -463 -360 -124 -112
-413 -413 -423 -441 -6 -15 -22 -10 -22 6 0 9 -13 21 -28 28 -29 12 -33 37 -6
37 9 0 13 4 9 9 -3 5 0 13 6 17 7 4 9 3 5 -4 -3 -6 -2 -13 4 -17 5 -3 10 1 10
9 0 9 7 16 15 16 20 0 9 25 -18 39 -12 6 -14 9 -5 7 10 -3 20 0 24 5 3 6 17 9
30 6 36 -6 48 6 34 34 -10 18 -10 24 -1 27 9 3 9 7 0 18 -9 11 -7 14 15 14 17
0 25 4 21 11 -4 6 -14 8 -22 5 -8 -3 -11 -1 -8 4 3 6 16 10 28 10 31 0 62 23
97 75 28 40 35 45 70 45 32 0 40 4 40 18 0 10 3 22 8 26 4 4 7 11 8 14 2 19
17 41 24 37 9 -6 33 22 36 42 5 32 15 43 39 43 14 0 25 5 25 10 0 6 11 10 24
10 33 0 41 15 16 33 -11 7 -17 17 -14 20 9 9 -19 34 -34 29 -6 -2 -12 1 -12 7
0 6 13 9 33 7 17 -3 36 -5 41 -5 6 -1 5 -6 -2 -13 -20 -20 -14 -28 23 -28 27
0 35 4 35 18 0 10 -5 23 -12 30 -7 7 -8 12 -4 12 5 0 15 -8 22 -17 12 -17 13
-17 14 -1 0 9 -4 19 -9 23 -16 9 -8 43 9 40 8 -2 20 -4 25 -5 6 -1 -1 -6 -15
-10 -22 -7 -21 -8 13 -9 20 -1 37 3 37 8 0 4 10 8 23 7 16 -1 21 4 19 17 -3
15 3 18 30 17 48 -3 55 -1 35 11 -9 5 -22 7 -27 4 -6 -3 -7 1 -4 9 3 9 10 16
16 16 5 0 7 4 3 9 -3 5 5 12 17 14 17 3 14 5 -10 6 -18 0 -31 5 -28 10 3 4 -7
6 -22 4 -26 -3 -26 -3 -4 7 13 5 20 14 17 20 -3 5 1 10 9 10 9 0 16 5 16 10 0
6 -8 10 -18 10 -11 0 -29 9 -42 20 -13 11 -27 20 -32 20 -4 0 -7 3 -7 8 3 18
-2 26 -10 13 -6 -10 -13 -11 -29 -2 -11 6 -30 11 -41 11 -11 0 -23 5 -26 10
-4 7 9 9 37 5 40 -5 41 -4 17 7 -14 7 -24 18 -22 24 4 12 -36 26 -59 21 -7 -2
-10 -2 -5 0 4 3 5 9 2 14 -3 4 11 16 32 25 l38 16 -33 12 c-18 6 -30 15 -26
19 4 4 2 7 -5 7 -8 0 -10 7 -6 20 4 14 2 20 -9 20 -10 0 -13 -6 -10 -17 5 -16
4 -16 -5 -2 -6 9 -23 20 -38 24 -26 6 -26 7 -9 17 18 10 18 11 -6 22 -23 10
-25 14 -15 36 16 39 18 58 6 66 -6 3 -16 1 -22 -5 -16 -16 -25 -14 -23 5 0 10
-8 18 -23 21 -14 2 -27 6 -30 9 -3 3 9 4 27 1 20 -3 32 -1 30 5 -2 5 -6 8 -8
7 -3 -1 -16 4 -30 11 -14 8 -30 13 -37 12 -8 -2 -11 12 -9 42 2 43 1 46 -27
52 -22 4 -27 10 -21 22 3 10 9 28 11 42 4 21 2 19 -14 -9 -11 -19 -28 -40 -38
-45 -11 -6 -25 -16 -32 -22 -6 -6 -24 -9 -40 -6 -28 5 -28 5 -9 -17 11 -11 29
-22 40 -22 20 -2 20 -2 -1 -6 -13 -2 -23 -12 -23 -21 0 -11 -3 -13 -8 -6 -4 6
-14 14 -22 17 -10 3 -7 6 8 6 13 1 21 5 17 11 -3 5 -13 7 -23 4 -14 -5 -15 -4
-2 5 13 9 12 11 -4 11 -13 0 -16 5 -12 17 6 15 5 15 -13 -1 -21 -19 -41 -14
-41 10 0 31 -63 8 -107 -40 -32 -35 -47 -45 -65 -42 -13 3 -27 5 -32 5 -4 1
-6 8 -2 16 10 26 -10 16 -23 -11 -8 -17 -17 -24 -27 -20 -9 3 -20 6 -25 6 -4
0 -6 7 -2 16 5 14 3 14 -15 3 -12 -7 -22 -22 -24 -34 -2 -11 -12 -21 -22 -23
-15 -3 -18 0 -13 17 10 39 -18 45 -56 11 -19 -16 -39 -30 -45 -30 -5 0 -12 -7
-16 -15 -3 -8 -16 -15 -28 -14 -22 1 -22 1 2 9 16 5 19 8 8 9 -9 1 -21 8 -26
17 -8 15 -11 15 -36 -1 -14 -10 -26 -13 -26 -7 0 20 -37 22 -78 4 -23 -10 -39
-22 -34 -26 4 -5 -10 -6 -30 -3 -21 3 -35 1 -32 -4 6 -10 -26 -12 -50 -3 -9 3
-16 15 -16 25 0 25 -8 24 -37 -3 -22 -21 -24 -21 -17 -3 4 14 -1 11 -20 -10
-15 -17 -23 -22 -20 -12 5 15 2 17 -21 13 -15 -3 -32 -10 -39 -16 -7 -5 -31
-16 -52 -24 -21 -8 -31 -15 -22 -15 9 -1 20 -5 23 -11 4 -6 -2 -7 -17 -1 -32
12 -29 24 12 38 23 8 28 12 15 12 -12 1 -25 5 -31 11 -10 10 -54 3 -54 -9 0
-4 -37 -7 -82 -6 -114 3 -111 2 -105 25 3 12 0 20 -7 20 -7 0 -21 -9 -31 -20
-19 -21 -55 -27 -55 -9 0 5 -8 9 -17 8 -35 -3 -45 1 -39 16 10 27 -11 16 -38
-20 -26 -33 -66 -48 -66 -24 0 6 9 9 20 6 11 -3 22 -2 25 3 2 4 -13 10 -35 14
-21 3 -41 10 -44 15 -4 5 10 5 32 0 20 -5 44 -8 52 -8 22 1 -34 17 -83 23 -23
3 -61 9 -84 12 -53 7 -56 -8 -5 -24 l37 -11 -35 5 c-19 2 -40 11 -46 19 -7 9
-62 26 -130 40 -66 14 -136 30 -156 34 -21 5 -38 5 -38 1 0 -4 21 -11 46 -15
41 -6 45 -8 32 -21 -12 -13 -23 -13 -61 -3 -26 6 -47 15 -47 20 0 5 5 9 10 9
6 0 10 5 10 10 0 6 -16 10 -35 10 -38 0 -45 -15 -18 -35 15 -11 15 -15 4 -29
-7 -9 -22 -16 -32 -16 -21 0 -26 -16 -6 -23 6 -3 1 -6 -12 -6 -20 -1 -21 -3
-11 -16 10 -13 9 -15 -10 -15 -27 0 -22 -21 9 -36 17 -9 19 -14 10 -20 -7 -4
-14 -3 -17 4 -2 8 -11 6 -29 -5 l-25 -16 27 -15 c15 -7 24 -16 21 -20 -4 -3
-11 -1 -17 5 -5 5 -21 8 -35 5 -19 -3 -24 -11 -24 -32 0 -16 -3 -35 -6 -43 -4
-12 0 -14 18 -11 13 2 16 1 8 -2 -8 -4 -18 -12 -22 -18 -5 -7 -8 -6 -8 3 0 11
-3 11 -15 1 -8 -7 -15 -10 -15 -6 0 4 -14 -1 -31 -10 -25 -12 -29 -18 -18 -25
12 -7 12 -9 -1 -9 -13 0 -13 -1 0 -10 11 -7 11 -10 2 -10 -7 0 -10 -4 -7 -10
3 -5 1 -10 -6 -10 -8 0 -8 -4 1 -15 7 -8 10 -16 6 -16 -3 -1 -10 -3 -16 -4 -5
-1 -14 -3 -20 -4 -5 0 -10 -6 -10 -12 0 -6 8 -8 18 -5 12 4 11 1 -6 -13 -12
-11 -22 -23 -21 -28 5 -28 -3 -35 -36 -31 -19 2 -35 0 -35 -5 0 -4 -6 -5 -12
-1 -10 6 -10 4 0 -8 9 -11 10 -18 2 -23 -6 -3 -8 -10 -5 -15 3 -5 -8 -7 -25
-5 -32 4 -51 -11 -26 -21 14 -6 14 -10 -4 -39 -24 -39 -27 -59 -4 -26 11 15
19 19 23 12 5 -8 13 -7 27 4 17 13 17 14 2 15 -18 0 -26 20 -9 20 16 0 33 -28
21 -35 -6 -3 -7 -11 -4 -17 4 -6 -5 -8 -22 -6 -27 3 -28 1 -29 -45 0 -28 4
-46 10 -44 5 2 9 16 7 31 -1 14 2 26 8 26 6 0 8 5 5 10 -3 6 -1 10 4 10 14 0
14 -17 1 -25 -5 -3 -10 -11 -10 -17 0 -7 5 -6 15 2 11 9 19 8 39 -7 14 -10 26
-24 26 -31 0 -9 7 -11 23 -7 12 3 18 3 12 -2 -5 -4 -11 -16 -11 -25 -1 -14 2
-15 17 -8 12 7 20 7 24 0 4 -6 12 -10 18 -9 34 4 39 -1 33 -33 -5 -31 -3 -34
34 -50 38 -15 39 -18 33 -53 -6 -35 -5 -37 15 -26 24 13 38 31 23 31 -5 0 -11
-6 -14 -12 -2 -7 -8 -10 -12 -6 -4 3 -3 14 2 23 8 14 12 14 34 -5 13 -12 19
-19 12 -15 -12 6 -39 -32 -29 -42 3 -3 13 -2 23 2 10 5 30 9 44 9 20 1 25 -3
21 -17 -3 -13 0 -16 12 -11 20 8 20 4 1 -32 -8 -16 -15 -37 -15 -46 0 -15 3
-15 30 -1 18 9 28 19 24 26 -4 7 -4 9 1 5 4 -4 17 -3 28 3 15 9 18 8 11 -2 -9
-15 -12 -59 -3 -54 3 2 19 0 35 -5 23 -7 25 -8 7 -9 -19 -1 -20 -4 -10 -26 11
-23 13 -23 36 -8 13 8 21 11 17 5 -3 -5 1 -13 9 -16 13 -4 14 -10 5 -26 -9
-16 -8 -20 5 -20 8 0 15 -9 15 -19 0 -17 4 -18 36 -10 19 6 41 8 47 6 7 -2 -5
-7 -25 -11 -42 -8 -49 -21 -18 -31 11 -4 19 -13 18 -22 -2 -10 11 -20 40 -28
75 -23 78 -25 62 -35 -8 -6 -25 -10 -37 -10 -13 0 -23 -5 -23 -11 0 -6 7 -8
16 -5 9 4 13 2 8 -5 -4 -8 1 -9 17 -5 l24 6 -22 -11 c-25 -13 -29 -24 -13 -34
9 -6 5 -47 -7 -68 -8 -13 -44 25 -38 40 2 8 1 12 -4 9 -4 -3 -33 23 -65 59
-55 62 -68 83 -43 69 7 -4 9 -3 4 2 -5 5 -14 9 -20 9 -7 1 -11 7 -9 14 1 7 -1
10 -6 7 -5 -3 -37 24 -70 60 -61 64 -74 82 -50 68 10 -5 10 -3 0 7 -7 8 -18
14 -25 14 -7 1 -11 6 -9 13 1 7 -4 11 -10 10 -7 -2 -12 3 -10 10 1 6 -4 11
-10 10 -7 -2 -12 3 -10 10 1 6 -3 11 -10 10 -7 -2 -12 4 -13 12 -1 8 -7 14
-13 12 -7 -1 -20 4 -28 12 -17 17 -19 30 -2 20 7 -4 8 -3 4 5 -4 6 -12 8 -18
5 -13 -8 -89 66 -81 80 3 6 3 8 -2 4 -11 -10 -47 11 -40 23 4 5 1 8 -7 7 -7
-2 -12 3 -10 10 1 8 -2 11 -8 7 -14 -9 -42 14 -33 28 3 5 1 7 -4 4 -13 -8 -55
27 -45 38 4 5 2 5 -5 2 -6 -4 -24 3 -40 16 -15 13 -63 47 -107 76 l-78 53 48
49 c27 27 55 47 62 44 8 -3 10 0 6 6 -8 14 86 110 99 102 6 -3 7 -1 3 5 -3 6
2 15 11 21 10 6 14 11 9 11 -5 0 -3 7 4 15 7 8 16 12 21 9 5 -3 7 1 4 8 -3 7
11 31 31 53 19 22 32 33 28 25 -4 -8 -3 -11 1 -7 5 4 10 15 11 24 4 25 67 112
78 106 5 -4 6 -1 1 7 -5 8 1 20 16 32 13 11 17 17 9 13 -8 -4 -6 1 4 9 11 9
17 16 13 16 -4 0 -3 9 3 20 6 11 16 17 22 14 6 -4 8 -3 5 4 -9 14 3 43 15 36
5 -3 8 0 7 7 -3 20 21 79 32 79 5 0 8 3 8 8 -3 20 2 32 13 26 6 -4 8 -3 5 4
-9 13 2 44 13 37 4 -3 7 3 6 13 -1 13 5 16 24 14 14 -1 26 -7 28 -12 2 -5 10
-6 18 -3 8 3 22 -3 30 -13 9 -11 13 -13 9 -6 -7 14 11 17 20 2 4 -6 11 -8 16
-5 5 4 9 2 9 -3 0 -6 10 -8 22 -4 12 3 19 1 15 -5 -4 -5 7 -8 26 -5 24 2 28 1
17 -7 -11 -8 -5 -9 24 -4 25 4 37 3 33 -4 -4 -6 4 -8 20 -5 17 3 24 1 19 -6
-4 -7 3 -9 20 -6 15 3 34 2 43 -2 9 -4 27 -6 40 -5 13 2 21 -1 18 -6 -4 -6 13
-8 38 -7 25 2 45 0 45 -5 0 -4 16 -5 36 -3 22 3 34 1 31 -5 -3 -5 0 -10 8 -10
8 0 12 3 10 7 -2 3 12 4 31 2 22 -3 32 -8 27 -16 -3 -6 -1 -6 8 2 7 6 17 12
22 12 4 0 5 -6 1 -12 -5 -9 -2 -9 9 1 9 7 17 10 17 5 0 -5 25 -7 56 -6 45 3
55 1 48 -10 -6 -10 -5 -11 7 -1 17 14 81 14 72 0 -3 -5 3 -4 14 2 14 7 24 7
33 -2 10 -10 11 -9 5 3 -8 13 -7 13 8 1 9 -7 17 -9 17 -4 0 5 50 10 112 12 61
1 116 5 121 8 5 3 13 -1 18 -8 5 -8 9 -9 9 -3 0 6 16 11 35 12 25 1 34 -2 30
-11 -4 -7 -1 -5 7 4 7 8 33 16 58 18 25 1 92 8 150 15 58 7 117 12 133 12 15
-1 27 2 27 7 0 4 5 7 11 7 5 0 8 -4 5 -8 -3 -5 1 -9 9 -9 8 0 11 5 8 10 -4 6
0 8 10 4 10 -3 17 -2 17 2 0 5 11 8 25 6 14 -1 28 2 31 6 3 5 15 9 27 9 52 0
77 5 77 13 0 5 7 7 15 4 8 -4 17 -2 20 4 4 5 11 7 16 3 5 -3 16 0 24 6 8 6 19
9 25 5 5 -3 10 -1 10 6 0 6 8 9 20 6 11 -3 23 -1 26 4 3 5 10 7 15 4 5 -4 9
-1 9 5 0 7 6 10 13 7 6 -2 26 1 44 8 17 8 34 11 37 7 3 -3 6 0 6 7 0 7 5 9 10
6 6 -3 10 -1 10 4 0 6 3 10 8 10 4 -1 9 -1 12 1 3 1 16 4 30 6 13 2 28 10 32
17 4 6 8 8 8 4 0 -5 6 -5 13 0 6 4 20 6 30 5 9 -2 17 2 17 7 0 6 -10 11 -22
12 -22 0 -22 1 -3 8 17 7 26 -3 63 -73 24 -45 71 -121 104 -171z m-406 50 c-2
-14 -6 -25 -9 -25 -4 0 -7 2 -7 5 0 3 0 14 0 25 0 11 4 20 9 20 5 0 8 -11 7
-25z m-41 5 c-3 -5 -2 -10 4 -10 7 0 7 -8 -1 -25 -6 -13 -15 -22 -20 -19 -6 4
-5 11 1 17 6 6 11 15 11 21 0 5 -9 -1 -20 -14 -11 -13 -23 -21 -26 -18 -3 3 7
18 21 32 26 26 41 34 30 16z m295 -20 c5 -37 0 -48 -20 -43 -16 4 -18 9 -10
24 6 10 10 22 9 26 -1 4 -1 12 0 18 2 13 19 -7 21 -25z m-83 14 c-3 -3 -12 -4
-19 -1 -8 3 -5 6 6 6 11 1 17 -2 13 -5z m43 -4 c0 -5 -7 -10 -16 -10 -8 0 -12
5 -9 10 3 6 10 10 16 10 5 0 9 -4 9 -10z m-2270 -30 c0 -5 -7 -7 -15 -4 -8 4
-15 8 -15 10 0 2 7 4 15 4 8 0 15 -4 15 -10z m2245 0 c3 -5 1 -10 -4 -10 -6 0
-11 5 -11 10 0 6 2 10 4 10 3 0 8 -4 11 -10z m-2051 -29 c3 -5 -4 -11 -17 -15
-36 -9 -47 -7 -41 9 7 16 49 21 58 6z m1502 -24 c-3 -14 -13 -27 -21 -31 -9
-3 -14 -2 -10 3 3 5 -1 12 -7 14 -9 4 -5 12 12 26 29 23 35 21 26 -12z m264
23 c0 -5 -2 -10 -4 -10 -3 0 -8 5 -11 10 -3 6 -1 10 4 10 6 0 11 -4 11 -10z
m-1960 -21 c-7 -11 -14 -18 -17 -15 -3 3 0 12 7 21 18 21 23 19 10 -6z m275 7
c46 -8 91 -34 79 -46 -5 -5 -34 -2 -64 6 -77 20 -80 21 -74 39 3 8 9 13 13 11
3 -2 24 -7 46 -10z m1612 -3 c-2 -2 -14 -5 -25 -8 -14 -2 -19 1 -16 10 3 7 14
11 25 8 11 -3 18 -7 16 -10z m256 10 c-7 -2 -19 -2 -25 0 -7 3 -2 5 12 5 14 0
19 -2 13 -5z m142 -3 c-3 -5 -14 -10 -23 -9 -14 0 -13 2 3 9 27 11 27 11 20 0z
m-2235 -18 c-8 -3 -26 -14 -38 -26 l-24 -21 18 31 c13 23 23 30 38 26 15 -4
16 -7 6 -10z m1750 -3 c0 -11 -27 -12 -34 0 -3 4 -3 11 0 14 8 8 34 -3 34 -14z
m390 17 c0 -2 -9 -6 -20 -9 -11 -3 -18 -1 -14 4 5 9 34 13 34 5z m-2106 -30
c-3 -9 -13 -12 -27 -8 l-22 7 23 3 c13 2 20 8 16 14 -4 7 -2 8 4 4 6 -4 9 -13
6 -20z m2131 14 c-3 -5 -12 -10 -18 -10 -7 0 -6 4 3 10 19 12 23 12 15 0z
m-765 -20 c-6 -11 -16 -20 -23 -20 -7 0 -6 4 3 10 8 5 11 10 7 10 -12 0 2 20
14 20 6 0 6 -8 -1 -20z m820 16 c0 -2 -7 -7 -16 -10 -8 -3 -12 -2 -9 4 6 10
25 14 25 6z m-1793 -12 c-3 -3 -12 -4 -19 -1 -8 3 -5 6 6 6 11 1 17 -2 13 -5z
m1403 -4 c18 -12 2 -12 -25 0 -13 6 -15 9 -5 9 8 0 22 -4 30 -9z m-1746 -8 c3
-5 -1 -9 -9 -9 -8 0 -15 4 -15 9 0 4 4 8 9 8 6 0 12 -4 15 -8z m2010 -1 c4 -5
-3 -7 -14 -4 -23 6 -26 13 -6 13 8 0 17 -4 20 -9z m46 -1 c0 -5 -5 -10 -11
-10 -5 0 -7 5 -4 10 3 6 8 10 11 10 2 0 4 -4 4 -10z m-1677 -10 c10 0 15 -5
12 -10 -4 -6 -23 -8 -43 -5 l-37 5 33 -10 c39 -13 43 -23 5 -14 -39 9 -43 13
-36 30 4 10 13 14 27 10 11 -3 29 -6 39 -6z m981 -4 c-3 -9 -12 -12 -22 -9
-15 6 -9 11 25 22 1 1 0 -5 -3 -13z m223 8 c-3 -3 -12 -4 -19 -1 -8 3 -5 6 6
6 11 1 17 -2 13 -5z m298 -4 c-3 -5 -14 -10 -23 -9 -14 0 -13 2 3 9 27 11 27
11 20 0z m229 -5 c-4 -8 -11 -12 -16 -9 -6 4 -5 10 3 15 19 12 19 11 13 -6z
m-2000 -8 c16 -12 14 -13 -18 -9 -20 2 -36 8 -36 13 0 13 34 11 54 -4z m176 3
c0 -5 -7 -7 -15 -4 -8 4 -15 8 -15 10 0 2 7 4 15 4 8 0 15 -4 15 -10z m220 0
c0 -5 -4 -10 -10 -10 -5 0 -10 5 -10 10 0 6 5 10 10 10 6 0 10 -4 10 -10z
m1030 -6 c0 -2 -11 -4 -25 -4 -14 0 -25 4 -25 9 0 4 11 6 25 3 14 -2 25 -6 25
-8z m385 6 c-3 -5 -12 -10 -18 -10 -7 0 -6 4 3 10 19 12 23 12 15 0z m55 -11
c-19 -4 -37 -6 -39 -3 -2 2 1 4 8 4 7 0 10 4 7 8 -3 5 9 6 27 3 l32 -5 -35 -7z
m277 15 c-3 -3 -12 -4 -19 -1 -8 3 -5 6 6 6 11 1 17 -2 13 -5z m55 -16 c-7 -7
-12 -8 -12 -2 0 6 3 14 7 17 3 4 9 5 12 2 2 -3 -1 -11 -7 -17z m-2412 2 c20
-6 21 -8 5 -8 -11 0 -29 3 -40 8 -25 11 1 11 35 0z m1270 0 c22 -1 23 -2 6 -9
-22 -9 -66 -3 -66 9 0 5 8 7 18 5 9 -2 28 -4 42 -5z m230 0 c0 -5 -2 -10 -4
-10 -3 0 -8 5 -11 10 -3 6 -1 10 4 10 6 0 11 -4 11 -10z m750 0 c0 -5 -2 -10
-4 -10 -3 0 -8 5 -11 10 -3 6 -1 10 4 10 6 0 11 -4 11 -10z m-1960 -9 c0 -5
-11 -11 -25 -13 -17 -4 -25 -1 -25 8 0 8 11 14 25 14 14 0 25 -4 25 -9z m295
-1 c3 -5 1 -10 -4 -10 -6 0 -11 5 -11 10 0 6 2 10 4 10 3 0 8 -4 11 -10z m98
3 c-7 -2 -19 -2 -25 0 -7 3 -2 5 12 5 14 0 19 -2 13 -5z m994 1 c-3 -3 -12 -4
-19 -1 -8 3 -5 6 6 6 11 1 17 -2 13 -5z m140 0 c-3 -3 -12 -4 -19 -1 -8 3 -5
6 6 6 11 1 17 -2 13 -5z m483 -4 c0 -5 -4 -10 -10 -10 -5 0 -10 5 -10 10 0 6
5 10 10 10 6 0 10 -4 10 -10z m-2375 -10 c-3 -5 -10 -10 -16 -10 -5 0 -9 5 -9
10 0 6 7 10 16 10 8 0 12 -4 9 -10z m80 -10 c3 -4 -3 -14 -12 -21 -12 -10 -14
-10 -9 -1 5 8 -2 12 -23 12 -21 0 -29 4 -25 13 5 14 60 11 69 -3z m192 14 c-3
-3 -12 -4 -19 -1 -8 3 -5 6 6 6 11 1 17 -2 13 -5z m123 2 c0 -3 -4 -8 -10 -11
-5 -3 -10 -1 -10 4 0 6 5 11 10 11 6 0 10 -2 10 -4z m450 -18 c0 -13 -32 -6
-37 9 -3 7 3 9 16 6 12 -3 21 -10 21 -15z m1300 7 c-19 -7 -29 -14 -21 -14 8
-1 12 -3 9 -6 -3 -3 -14 -2 -24 2 -16 6 -15 8 11 19 17 7 37 13 45 13 8 0 -1
-7 -20 -14z m270 11 c0 -11 -19 -15 -25 -6 -3 5 1 10 9 10 9 0 16 -2 16 -4z
m-1980 -16 c0 -5 -4 -10 -10 -10 -5 0 -10 5 -10 10 0 6 5 10 10 10 6 0 10 -4
10 -10z m167 4 c-3 -3 -12 -4 -19 -1 -8 3 -5 6 6 6 11 1 17 -2 13 -5z m1878
-4 c-3 -5 -13 -10 -21 -10 -8 0 -14 5 -14 10 0 6 9 10 21 10 11 0 17 -4 14
-10z m-2235 -10 c13 -9 13 -10 0 -10 -8 0 -22 5 -30 10 -13 9 -13 10 0 10 8 0
22 -5 30 -10z m285 -11 c10 -10 11 -10 -31 -12 -22 -2 -30 3 -31 16 -2 14 4
16 25 11 15 -4 31 -11 37 -15z m365 11 c0 -5 -8 -10 -17 -10 -15 0 -16 2 -3
10 19 12 20 12 20 0z m1125 0 c3 -6 -1 -7 -9 -4 -18 7 -21 14 -7 14 6 0 13 -4
16 -10z m222 -12 c-3 -8 -6 -5 -6 6 -1 11 2 17 5 13 3 -3 4 -12 1 -19z m-692
2 c3 -5 -3 -10 -15 -10 -12 0 -18 5 -15 10 3 6 10 10 15 10 5 0 12 -4 15 -10z
m-1278 -26 c-7 -7 -76 9 -72 16 3 5 21 3 40 -3 19 -6 34 -12 32 -13z m53 16
c8 -5 11 -10 5 -10 -5 0 -17 5 -25 10 -8 5 -10 10 -5 10 6 0 17 -5 25 -10z
m252 -12 c-12 -12 -35 -1 -27 12 3 5 13 6 21 3 10 -4 12 -9 6 -15z m1543 12
c13 -6 15 -9 5 -9 -8 0 -22 4 -30 9 -18 12 -2 12 25 0z m335 0 c13 -8 13 -10
-2 -10 -9 0 -20 5 -23 10 -8 13 5 13 25 0z m-1575 -10 c3 -5 -1 -10 -10 -10
-9 0 -13 5 -10 10 3 6 8 10 10 10 2 0 7 -4 10 -10z m1500 0 c-3 -5 -14 -10
-23 -9 -14 0 -13 2 3 9 27 11 27 11 20 0z m-2415 -10 c0 -5 -2 -10 -4 -10 -3
0 -8 5 -11 10 -3 6 -1 10 4 10 6 0 11 -4 11 -10z m58 4 c34 -10 26 -24 -13
-24 -33 0 -43 8 -28 23 8 8 12 8 41 1z m152 -4 c0 -5 -2 -10 -4 -10 -3 0 -8 5
-11 10 -3 6 -1 10 4 10 6 0 11 -4 11 -10z m135 0 c3 -5 -1 -10 -10 -10 -9 0
-13 5 -10 10 3 6 8 10 10 10 2 0 7 -4 10 -10z m745 0 c12 -8 9 -10 -12 -10
-16 0 -28 5 -28 10 0 13 20 13 40 0z m590 6 c0 -3 -4 -8 -10 -11 -5 -3 -10 -1
-10 4 0 6 5 11 10 11 6 0 10 -2 10 -4z m-1425 -16 c3 -5 -3 -10 -14 -10 -12 0
-21 5 -21 10 0 6 6 10 14 10 8 0 18 -4 21 -10z m120 0 c3 -5 1 -10 -4 -10 -6
0 -11 5 -11 10 0 6 2 10 4 10 3 0 8 -4 11 -10z m2095 0 c0 -5 -7 -7 -15 -4 -8
4 -15 8 -15 10 0 2 7 4 15 4 8 0 15 -4 15 -10z m-2360 -4 c0 -3 -4 -8 -10 -11
-5 -3 -10 -1 -10 4 0 6 5 11 10 11 6 0 10 -2 10 -4z m190 -6 c0 -5 -7 -10 -15
-10 -8 0 -15 5 -15 10 0 6 7 10 15 10 8 0 15 -4 15 -10z m207 4 c-3 -3 -12 -4
-19 -1 -8 3 -5 6 6 6 11 1 17 -2 13 -5z m-134 -25 c4 -5 4 -7 1 -4 -4 3 -13 0
-21 -7 -11 -9 -13 -8 -11 3 2 9 -4 13 -14 11 -10 -2 -18 2 -18 9 0 13 50 4 63
-12z m688 8 c-6 -8 -10 -16 -8 -18 1 -2 0 -3 -2 -1 -12 7 -7 32 6 32 12 0 13
-3 4 -13z m1000 -10 c-10 -9 -11 -8 -5 6 3 10 9 15 12 12 3 -3 0 -11 -7 -18z
m54 13 c-3 -5 2 -10 12 -11 16 0 16 -1 -2 -9 -12 -5 -14 -9 -6 -9 8 -1 12 -3
9 -6 -3 -3 -16 -1 -29 4 -21 9 -22 10 -4 11 13 1 15 4 6 7 -11 5 -11 7 0 14
18 11 22 11 14 -1z m176 -8 c-7 -2 -18 1 -23 6 -8 8 -4 9 13 5 13 -4 18 -8 10
-11z m-2326 -2 c3 -5 1 -10 -4 -10 -6 0 -11 5 -11 10 0 6 2 10 4 10 3 0 8 -4
11 -10z m271 1 c-6 -9 -46 -22 -46 -15 0 3 10 9 23 14 29 11 29 11 23 1z m279
-1 c25 -11 -1 -11 -35 0 -20 6 -21 8 -5 8 11 0 29 -3 40 -8z m-490 -11 c19 -9
18 -9 -2 -5 -13 2 -23 0 -23 -4 0 -5 10 -11 23 -13 19 -5 19 -5 -3 -4 -15 1
-26 9 -28 20 -4 19 3 20 33 6z m265 7 c0 -2 -7 -7 -16 -10 -8 -3 -12 -2 -9 4
6 10 25 14 25 6z m150 -8 c0 -3 -9 -6 -20 -5 -11 1 -20 5 -20 9 0 3 9 6 20 5
11 -1 20 -5 20 -9z m437 -10 c-3 -8 -6 -5 -6 6 -1 11 2 17 5 13 3 -3 4 -12 1
-19z m226 7 c-3 -9 -8 -14 -10 -11 -3 3 -2 9 2 15 9 16 15 13 8 -4z m1277 5
c13 -8 13 -10 -2 -10 -9 0 -20 5 -23 10 -8 13 5 13 25 0z m-1876 -9 c14 -5 16
-10 7 -15 -15 -10 -61 1 -61 14 0 12 26 12 54 1z m63 3 c-3 -3 -12 -4 -19 -1
-8 3 -5 6 6 6 11 1 17 -2 13 -5z m973 -4 c0 -5 -2 -10 -4 -10 -3 0 -8 5 -11
10 -3 6 -1 10 4 10 6 0 11 -4 11 -10z m727 4 c-3 -3 -12 -4 -19 -1 -8 3 -5 6
6 6 11 1 17 -2 13 -5z m-272 -14 c-3 -5 -13 -10 -21 -10 -8 0 -14 5 -14 10 0
6 9 10 21 10 11 0 17 -4 14 -10z m432 4 c-3 -3 -12 -4 -19 -1 -8 3 -5 6 6 6
11 1 17 -2 13 -5z m-1869 -15 c-2 -6 -8 -10 -13 -10 -5 0 -11 4 -13 10 -2 6 4
11 13 11 9 0 15 -5 13 -11z m69 -9 c1 -12 -4 -20 -13 -20 -12 0 -12 4 -4 20 6
11 12 20 13 20 2 0 3 -9 4 -20z m1461 5 c12 -3 22 -11 22 -16 0 -11 -53 0 -58
13 -2 4 -8 6 -13 2 -5 -3 -9 0 -9 6 0 6 8 9 18 6 9 -2 27 -7 40 -11z m162 5
c-19 -6 -21 -8 -6 -9 11 -1 17 -4 13 -7 -10 -10 -39 5 -32 16 3 5 16 10 28 9
20 -1 20 -2 -3 -9z m115 -11 c-4 -5 -14 -8 -23 -8 -15 1 -15 2 1 6 9 2 14 9
11 15 -4 7 -2 8 5 4 6 -4 9 -12 6 -17z m45 -4 c0 -2 -6 -5 -13 -8 -8 -3 -14 1
-14 8 0 7 6 11 14 8 7 -3 13 -6 13 -8z m-2260 -5 c0 -5 -5 -10 -11 -10 -5 0
-7 5 -4 10 3 6 8 10 11 10 2 0 4 -4 4 -10z m347 4 c-3 -3 -12 -4 -19 -1 -8 3
-5 6 6 6 11 1 17 -2 13 -5z m2080 0 c-3 -3 -12 -4 -19 -1 -8 3 -5 6 6 6 11 1
17 -2 13 -5z m-2383 -11 c6 -6 20 -9 64 -15 15 -2 16 -14 2 -23 -5 -3 -10 -2
-10 4 0 6 -7 8 -15 5 -8 -4 -21 -1 -29 5 -8 7 -19 10 -26 9 -7 -2 -15 3 -17
10 -5 13 19 17 31 5z m261 -3 c-3 -5 -14 -10 -23 -9 -14 0 -13 2 3 9 27 11 27
11 20 0z m75 6 c0 -3 -4 -8 -10 -11 -5 -3 -10 -1 -10 4 0 6 5 11 10 11 6 0 10
-2 10 -4z m150 -6 c0 -5 -7 -10 -16 -10 -8 0 -12 5 -9 10 3 6 10 10 16 10 5 0
9 -4 9 -10z m1670 -6 c0 -2 -9 -4 -20 -4 -11 0 -20 4 -20 9 0 5 9 7 20 4 11
-3 20 -7 20 -9z m-2362 -1 c18 -4 20 -8 10 -14 -17 -12 -31 -11 -23 0 3 5 -3
12 -12 14 -10 3 -13 5 -8 6 6 0 21 -2 33 -6z m2261 -14 c13 -8 11 -9 -6 -4
-14 4 -23 2 -23 -5 0 -7 -7 -5 -16 5 -13 12 -19 13 -30 4 -12 -10 -13 -9 -8 5
7 17 52 15 83 -5z m-1769 7 c0 -3 -4 -8 -10 -11 -5 -3 -10 -1 -10 4 0 6 5 11
10 11 6 0 10 -2 10 -4z m1907 -2 c-3 -3 -12 -4 -19 -1 -8 3 -5 6 6 6 11 1 17
-2 13 -5z m170 0 c-3 -3 -12 -4 -19 -1 -8 3 -5 6 6 6 11 1 17 -2 13 -5z
m-2522 -14 c-3 -5 -12 -10 -18 -10 -7 0 -6 4 3 10 19 12 23 12 15 0z m259 -5
c-4 -8 -8 -15 -10 -15 -2 0 -4 7 -4 15 0 8 4 15 10 15 5 0 7 -7 4 -15z m26 0
c0 -8 -4 -15 -10 -15 -5 0 -7 7 -4 15 4 8 8 15 10 15 2 0 4 -7 4 -15z m914 7
c3 -5 -1 -9 -9 -9 -8 0 -15 4 -15 9 0 4 4 8 9 8 6 0 12 -4 15 -8z m785 -7 c4
2 20 1 34 -3 20 -5 24 -11 17 -21 -7 -13 -13 -13 -37 -1 -15 7 -31 13 -35 12
-4 -1 -4 6 -1 15 4 11 8 13 11 5 2 -7 7 -10 11 -7z m300 -11 c-6 -8 -19 -14
-28 -13 -12 0 -11 2 4 9 11 5 14 9 8 9 -7 1 -13 5 -13 10 0 5 9 7 20 4 16 -4
18 -8 9 -19z m281 22 c0 -2 -9 -6 -20 -9 -11 -3 -18 -1 -14 4 5 9 34 13 34 5z
m-2745 -16 c3 -5 1 -10 -4 -10 -6 0 -11 5 -11 10 0 6 2 10 4 10 3 0 8 -4 11
-10z m578 -14 c16 -4 25 -11 21 -17 -3 -6 -12 -8 -20 -5 -7 3 -16 1 -19 -4 -4
-6 -12 -10 -18 -9 -9 0 -9 2 0 6 17 6 -7 32 -24 26 -7 -3 -13 0 -13 7 0 6 -5
8 -12 4 -6 -4 -8 -3 -4 4 4 7 16 8 34 2 15 -4 40 -11 55 -14z m2109 17 c-6 -2
-9 -10 -6 -15 4 -7 2 -8 -5 -4 -13 9 -5 26 12 25 9 0 8 -2 -1 -6z m-2562 -24
c0 -10 -12 -11 -34 -3 -25 10 -19 22 9 16 14 -2 25 -8 25 -13z m2380 17 c0 -2
-7 -9 -15 -16 -13 -11 -14 -10 -9 4 5 14 24 23 24 12z m64 -11 c-7 -18 -20
-19 -30 -3 -4 6 -3 8 4 4 6 -3 13 -2 17 4 9 15 15 12 9 -5z m-1820 -4 c4 -5
-3 -7 -14 -4 -23 6 -26 13 -6 13 8 0 17 -4 20 -9z m-594 -11 c0 -5 -4 -10 -10
-10 -5 0 -10 5 -10 10 0 6 5 10 10 10 6 0 10 -4 10 -10z m501 -7 c2 1 3 0 1
-3 -1 -2 -14 -6 -27 -7 -19 -3 -23 0 -19 12 4 11 11 12 24 5 9 -5 19 -8 21 -7z
m711 0 c-10 -4 -10 -8 -1 -19 10 -12 9 -13 -5 -8 -9 3 -16 9 -16 13 0 12 23
31 29 24 3 -3 0 -8 -7 -10z m928 8 c0 -4 11 -6 25 -3 21 3 24 1 19 -12 -4 -11
-12 -15 -23 -10 -9 3 -22 7 -28 7 -15 0 -18 27 -3 27 6 0 10 -4 10 -9z m-1950
-9 c0 -5 -7 -9 -15 -9 -8 0 -12 4 -9 9 3 4 9 8 15 8 5 0 9 -4 9 -8z m1840 4
c0 -2 -11 -6 -25 -8 -13 -3 -22 -1 -19 3 5 9 44 13 44 5z m450 -6 c0 -5 -5
-10 -11 -10 -5 0 -7 -4 -4 -10 3 -5 1 -10 -4 -10 -13 0 -13 3 -5 24 7 18 24
22 24 6z m-1909 -23 c-12 -12 -45 -1 -37 12 3 5 15 7 27 4 13 -4 17 -9 10 -16z
m1649 20 c0 -2 -10 -12 -21 -23 -22 -19 -22 -19 -10 4 10 18 31 31 31 19z
m366 -6 c-4 -5 0 -12 6 -14 7 -3 2 -6 -11 -6 -20 -1 -21 1 -11 14 14 16 25 21
16 6z m-2466 -12 c0 -11 -21 -11 -39 0 -9 6 -5 9 13 9 14 0 26 -4 26 -9z m517
-4 c0 -8 -4 -15 -9 -15 -10 0 -11 14 -1 23 9 10 10 9 10 -8z m1634 0 c0 -5 -9
-11 -21 -13 -20 -3 -27 8 -13 22 10 9 34 3 34 -9z m276 9 c-3 -3 -12 -4 -19
-1 -8 3 -5 6 6 6 11 1 17 -2 13 -5z m-2622 -14 c19 -8 19 -9 -2 -9 -12 -1 -25
4 -28 9 -7 12 2 12 30 0z m265 -11 c11 -6 8 -8 -10 -5 -14 3 -31 5 -37 5 -7 1
-13 6 -13 12 0 11 31 4 60 -12z m1815 11 c13 -6 15 -9 5 -9 -8 0 -22 4 -30 9
-18 12 -2 12 25 0z m315 -5 c5 3 11 2 14 -3 2 -4 -6 -8 -20 -8 -24 0 -30 7
-17 20 4 4 9 2 11 -3 2 -6 8 -9 12 -6z m-1769 -13 c-7 -2 -18 1 -23 6 -8 8 -4
9 13 5 13 -4 18 -8 10 -11z m-156 -2 c-3 -5 -14 -10 -23 -9 -14 0 -13 2 3 9
27 11 27 11 20 0z m348 -5 c-3 -9 -8 -14 -10 -11 -3 3 -2 9 2 15 9 16 15 13 8
-4z m1621 0 c-4 -8 -8 -15 -10 -15 -2 0 -4 7 -4 15 0 8 4 15 10 15 5 0 7 -7 4
-15z m213 9 c-3 -3 -12 -4 -19 -1 -8 3 -5 6 6 6 11 1 17 -2 13 -5z m-2662 -14
c7 -12 -2 -12 -30 0 -19 8 -19 9 2 9 12 1 25 -3 28 -9z m335 6 c0 -3 -4 -8
-10 -11 -5 -3 -10 -1 -10 4 0 6 5 11 10 11 6 0 10 -2 10 -4z m370 -6 c0 -5 -5
-10 -11 -10 -5 0 -7 5 -4 10 3 6 8 10 11 10 2 0 4 -4 4 -10z m1830 -10 c0 -5
14 -6 32 -3 28 4 30 3 19 -11 -7 -9 -18 -13 -25 -9 -6 4 -19 8 -28 9 -35 3
-37 4 -32 18 6 15 34 11 34 -4z m210 4 c0 -2 -9 -4 -20 -4 -11 0 -20 4 -20 9
0 5 9 7 20 4 11 -3 20 -7 20 -9z m-2575 -4 c3 -5 1 -10 -4 -10 -6 0 -11 5 -11
10 0 6 2 10 4 10 3 0 8 -4 11 -10z m235 -1 c0 -11 -21 -11 -39 0 -9 6 -5 9 13
9 14 0 26 -4 26 -9z m206 -4 c-19 -14 -19 -15 -1 -15 10 0 16 -3 12 -6 -3 -3
-16 -3 -28 1 l-22 7 24 14 c32 18 39 17 15 -1z m1611 9 c-3 -3 -12 -4 -19 -1
-8 3 -5 6 6 6 11 1 17 -2 13 -5z m-1996 -14 c5 0 9 -4 9 -9 0 -12 -38 -2 -47
12 -4 7 0 8 11 4 10 -4 22 -7 27 -7z m236 -6 c2 -7 -6 -10 -22 -7 -14 3 -25
10 -25 15 0 13 43 6 47 -8z m1100 -6 c-3 -8 -6 -5 -6 6 -1 11 2 17 5 13 3 -3
4 -12 1 -19z m1233 12 c8 -5 11 -10 5 -10 -5 0 -17 5 -25 10 -8 5 -10 10 -5
10 6 0 17 -5 25 -10z m-2810 -17 c0 -7 -11 -13 -25 -13 -24 0 -32 10 -19 23
11 10 44 3 44 -10z m524 -4 c-6 -11 -24 -2 -24 11 0 5 7 7 15 4 8 -4 12 -10 9
-15z m2126 6 c0 -8 -7 -15 -15 -15 -16 0 -20 12 -8 23 11 12 23 8 23 -8z
m-2616 -10 c-6 -16 -24 -21 -24 -7 0 11 11 22 21 22 5 0 6 -7 3 -15z m91 5 c3
-6 -1 -7 -9 -4 -18 7 -21 14 -7 14 6 0 13 -4 16 -10z m2092 4 c-3 -3 -12 -4
-19 -1 -8 3 -5 6 6 6 11 1 17 -2 13 -5z m499 -4 c21 0 23 -26 2 -27 -10 -1
-22 5 -25 13 -4 11 -9 12 -19 3 -11 -9 -14 -8 -14 6 0 13 5 16 23 11 12 -3 27
-6 33 -6z m-2488 -25 c-8 -8 -48 8 -42 16 3 5 14 4 25 -2 12 -6 19 -12 17 -14z
m92 15 c0 -5 -2 -10 -4 -10 -3 0 -8 5 -11 10 -3 6 -1 10 4 10 6 0 11 -4 11
-10z m308 -5 c12 -3 22 -11 22 -17 0 -7 -4 -7 -13 1 -8 6 -16 8 -20 5 -8 -9
-47 6 -47 17 0 6 8 8 18 5 9 -2 27 -7 40 -11z m1462 -6 c10 -6 3 -7 -19 -4
-19 3 -41 10 -50 16 -20 13 47 1 69 -12z m167 15 c-3 -3 -12 -4 -19 -1 -8 3
-5 6 6 6 11 1 17 -2 13 -5z m-2165 -26 c-7 -7 -12 -8 -12 -2 0 14 12 26 19 19
2 -3 -1 -11 -7 -17z m293 12 c3 -5 1 -10 -4 -10 -6 0 -11 5 -11 10 0 6 2 10 4
10 3 0 8 -4 11 -10z m1325 6 c0 -11 -19 -15 -25 -6 -3 5 1 10 9 10 9 0 16 -2
16 -4z m597 -2 c-3 -3 -12 -4 -19 -1 -8 3 -5 6 6 6 11 1 17 -2 13 -5z m481
-12 c2 -7 -6 -12 -17 -12 -21 0 -27 11 -14 24 9 9 26 2 31 -12z m69 9 c-10 -4
-18 -11 -17 -16 1 -5 -3 -11 -9 -13 -6 -2 -11 0 -11 5 0 15 23 33 40 32 11 0
11 -2 -3 -8z m-2877 -10 c0 -6 -9 -9 -20 -8 -11 1 -20 5 -20 9 0 4 9 8 20 8
11 0 20 -4 20 -9z m174 -6 c-4 -8 -10 -15 -15 -15 -5 0 -9 7 -9 15 0 8 7 15
15 15 9 0 12 -6 9 -15z m281 5 c19 -8 19 -9 -2 -9 -12 -1 -25 4 -28 9 -7 12 2
12 30 0z m-425 -10 c0 -5 -4 -10 -10 -10 -5 0 -10 5 -10 10 0 6 5 10 10 10 6
0 10 -4 10 -10z m199 1 c9 -6 10 -11 2 -15 -15 -10 -53 3 -46 15 8 11 26 11
44 0z m1841 -1 c12 -8 11 -10 -7 -10 -13 0 -23 5 -23 10 0 13 11 13 30 0z
m140 -6 c0 -2 -7 -4 -15 -4 -8 0 -15 4 -15 10 0 5 7 7 15 4 8 -4 15 -8 15 -10z
m-1700 -4 c0 -5 -2 -10 -4 -10 -3 0 -8 5 -11 10 -3 6 -1 10 4 10 6 0 11 -4 11
-10z m2213 3 c-7 -2 -19 -2 -25 0 -7 3 -2 5 12 5 14 0 19 -2 13 -5z m192 -3
c3 -5 1 -10 -4 -10 -6 0 -11 5 -11 10 0 6 2 10 4 10 3 0 8 -4 11 -10z m-2944
-18 c-7 -2 -18 1 -23 6 -8 8 -4 9 13 5 13 -4 18 -8 10 -11z m129 14 c0 -3 -4
-8 -10 -11 -5 -3 -10 -1 -10 4 0 6 5 11 10 11 6 0 10 -2 10 -4z m210 -6 c0 -5
-9 -14 -19 -19 -16 -9 -18 -8 -14 9 5 20 33 29 33 10z m87 4 c-3 -3 -12 -4
-19 -1 -8 3 -5 6 6 6 11 1 17 -2 13 -5z m1753 -6 c0 -4 -4 -8 -9 -8 -6 0 -12
4 -15 8 -3 5 1 9 9 9 8 0 15 -4 15 -9z m97 6 c-3 -3 -12 -4 -19 -1 -8 3 -5 6
6 6 11 1 17 -2 13 -5z m63 -4 c0 -5 -12 -10 -27 -9 l-28 1 25 8 c14 4 26 8 28
9 1 1 2 -3 2 -9z m205 -8 c-3 -3 -11 0 -18 7 -9 10 -8 11 6 5 10 -3 15 -9 12
-12z m270 0 c-3 -3 -11 0 -18 7 -9 10 -8 11 6 5 10 -3 15 -9 12 -12z m-2932
-3 c-8 -8 -16 -8 -30 0 -16 9 -14 10 12 11 21 0 26 -3 18 -11z m152 1 c3 -5 1
-10 -4 -10 -6 0 -11 5 -11 10 0 6 2 10 4 10 3 0 8 -4 11 -10z m140 0 c3 -5 1
-10 -4 -10 -6 0 -11 5 -11 10 0 6 2 10 4 10 3 0 8 -4 11 -10z m42 3 c-4 -3 1
-12 10 -19 15 -11 14 -11 -10 -7 -22 4 -25 8 -16 19 6 8 14 14 17 14 3 0 2 -3
-1 -7z m153 -13 c-6 -11 -13 -20 -16 -20 -2 0 0 9 6 20 6 11 13 20 16 20 2 0
0 -9 -6 -20z m110 11 c0 -5 -9 -7 -20 -4 -11 3 -20 7 -20 9 0 2 9 4 20 4 11 0
20 -4 20 -9z m155 -1 c7 -12 -2 -12 -30 0 -19 8 -19 9 2 9 12 1 25 -3 28 -9z
m845 0 c0 -5 -5 -10 -11 -10 -5 0 -7 5 -4 10 3 6 8 10 11 10 2 0 4 -4 4 -10z
m740 0 c0 -5 -7 -10 -15 -10 -8 0 -15 5 -15 10 0 6 7 10 15 10 8 0 15 -4 15
-10z m-2284 -18 c1 -7 0 -8 -3 -2 -2 5 -9 8 -14 4 -5 -3 -9 0 -9 6 0 15 23 7
26 -8z m527 1 c4 -2 5 -8 2 -13 -7 -11 -37 -1 -47 14 -5 8 -8 7 -8 -1 0 -7 -7
-10 -15 -7 -27 11 -4 25 28 18 18 -3 35 -8 40 -11z m62 7 c3 -6 -1 -7 -9 -4
-18 7 -21 14 -7 14 6 0 13 -4 16 -10z m145 0 c0 -5 -5 -10 -11 -10 -5 0 -7 5
-4 10 3 6 8 10 11 10 2 0 4 -4 4 -10z m1590 0 c0 -5 -7 -10 -15 -10 -8 0 -15
5 -15 10 0 6 7 10 15 10 8 0 15 -4 15 -10z m265 -8 c-3 -3 -11 0 -18 7 -9 10
-8 11 6 5 10 -3 15 -9 12 -12z m72 12 c-3 -3 -12 -4 -19 -1 -8 3 -5 6 6 6 11
1 17 -2 13 -5z m-2613 -13 c3 -5 15 -7 26 -4 12 3 20 0 20 -6 0 -7 6 -9 13 -5
6 4 9 3 4 -1 -11 -13 -45 -16 -52 -6 -3 5 -14 7 -25 4 -19 -5 -27 7 -13 20 9
10 21 9 27 -2z m126 -1 c0 -5 -5 -10 -11 -10 -5 0 -7 5 -4 10 3 6 8 10 11 10
2 0 4 -4 4 -10z m1763 -10 c-3 -12 -8 -19 -11 -16 -5 6 5 36 12 36 2 0 2 -9
-1 -20z m230 5 c-3 -9 -8 -14 -10 -11 -3 3 -2 9 2 15 9 16 15 13 8 -4z m201 9
c22 -9 10 -23 -14 -17 -11 3 -17 9 -14 14 6 11 8 11 28 3z m343 0 c-3 -3 -12
-4 -19 -1 -8 3 -5 6 6 6 11 1 17 -2 13 -5z m80 0 c-3 -3 -12 -4 -19 -1 -8 3
-5 6 6 6 11 1 17 -2 13 -5z m180 0 c-3 -3 -12 -4 -19 -1 -8 3 -5 6 6 6 11 1
17 -2 13 -5z m-3047 -14 c12 -8 11 -10 -7 -10 -13 0 -23 5 -23 10 0 13 11 13
30 0z m650 -6 c0 -14 3 -14 15 -4 13 11 14 10 9 -4 -4 -10 -13 -15 -21 -12 -8
3 -19 6 -24 6 -4 0 -6 7 -3 15 8 20 24 19 24 -1z m105 6 c8 -13 -15 -13 -35 0
-12 8 -11 10 7 10 12 0 25 -4 28 -10z m1538 -5 c-3 -9 -8 -14 -10 -11 -3 3 -2
9 2 15 9 16 15 13 8 -4z m632 5 c3 -6 -1 -7 -9 -4 -18 7 -21 14 -7 14 6 0 13
-4 16 -10z m-2478 -6 c-3 -3 -12 -4 -19 -1 -8 3 -5 6 6 6 11 1 17 -2 13 -5z
m1163 -15 c0 -4 -7 -6 -15 -3 -8 4 -15 10 -15 15 0 4 7 6 15 3 8 -4 15 -10 15
-15z m764 0 c-11 -4 -13 -8 -5 -8 8 -1 12 -4 8 -7 -3 -3 -14 -1 -24 5 -11 6
-13 11 -5 11 7 0 11 4 8 9 -4 5 4 7 16 3 21 -5 21 -6 2 -13z m281 3 c-3 -3
-11 0 -18 7 -9 10 -8 11 6 5 10 -3 15 -9 12 -12z m208 11 c-7 -2 -19 -2 -25 0
-7 3 -2 5 12 5 14 0 19 -2 13 -5z m101 -8 c-4 -8 -11 -15 -16 -15 -6 0 -5 6 2
15 7 8 14 15 16 15 2 0 1 -7 -2 -15z m-2894 -5 c0 -5 -4 -10 -10 -10 -5 0 -10
5 -10 10 0 6 5 10 10 10 6 0 10 -4 10 -10z m176 -8 c1 -7 0 -8 -3 -2 -3 8 -9
7 -19 -1 -11 -9 -14 -8 -14 6 0 19 32 17 36 -3z m114 9 c0 -4 -11 -6 -25 -3
-14 2 -25 6 -25 8 0 2 11 4 25 4 14 0 25 -4 25 -9z m224 0 c4 -5 -3 -7 -14 -4
-23 6 -26 13 -6 13 8 0 17 -4 20 -9z m165 -2 c17 -6 31 -16 31 -21 0 -6 8 -4
17 3 11 10 14 10 9 2 -7 -13 4 -17 34 -13 10 1 12 -2 5 -9 -7 -7 -21 -8 -42
-2 -20 6 -35 5 -41 -1 -8 -8 -9 -4 -5 13 6 23 6 24 -14 6 -22 -19 -67 -32 -58
-16 4 5 10 7 14 5 4 -3 13 -1 21 5 12 7 10 9 -7 9 -16 0 -21 4 -17 15 7 18 12
18 53 4z m1576 2 c3 -5 1 -12 -4 -15 -5 -3 -11 1 -15 9 -6 16 9 21 19 6z m225
-1 c0 -5 -4 -10 -10 -10 -5 0 -10 5 -10 10 0 6 5 10 10 10 6 0 10 -4 10 -10z
m370 0 c8 -5 11 -10 5 -10 -5 0 -17 5 -25 10 -8 5 -10 10 -5 10 6 0 17 -5 25
-10z m-2939 -9 c-12 -8 -51 -4 -51 5 0 2 15 4 33 4 22 0 28 -3 18 -9z m129 5
c0 -11 -19 -15 -25 -6 -3 5 1 10 9 10 9 0 16 -2 16 -4z m209 -12 c14 -2 27 -8
29 -14 2 -5 9 -7 14 -4 6 4 8 2 4 -4 -4 -7 -16 -7 -39 -1 -17 6 -39 12 -47 14
-8 2 -16 4 -18 4 -2 1 0 6 3 11 4 6 12 7 18 3 6 -4 23 -8 36 -9z m208 10 c-3
-3 -12 -4 -19 -1 -8 3 -5 6 6 6 11 1 17 -2 13 -5z m1910 0 c-3 -3 -12 -4 -19
-1 -8 3 -5 6 6 6 11 1 17 -2 13 -5z m408 -4 c3 -6 -1 -7 -9 -4 -18 7 -21 14
-7 14 6 0 13 -4 16 -10z m182 4 c-3 -3 -12 -4 -19 -1 -8 3 -5 6 6 6 11 1 17
-2 13 -5z m-2887 -14 c0 -5 -4 -10 -10 -10 -5 0 -10 5 -10 10 0 6 5 10 10 10
6 0 10 -4 10 -10z m293 3 c-7 -2 -19 -2 -25 0 -7 3 -2 5 12 5 14 0 19 -2 13
-5z m137 3 c0 -2 -9 -6 -20 -9 -11 -3 -18 -1 -14 4 5 9 34 13 34 5z m60 0 c0
-2 -7 -7 -16 -10 -8 -3 -12 -2 -9 4 6 10 25 14 25 6z m965 -6 c3 -5 -1 -10 -9
-10 -8 0 -18 5 -21 10 -3 6 1 10 9 10 8 0 18 -4 21 -10z m819 -11 c-11 -4 -13
-8 -5 -8 8 -1 12 -4 8 -7 -3 -3 -14 -1 -24 5 -11 6 -13 11 -5 11 7 0 11 4 8 9
-4 5 4 7 16 3 21 -5 21 -6 2 -13z m226 11 c0 -5 -7 -10 -15 -10 -8 0 -15 5
-15 10 0 6 7 10 15 10 8 0 15 -4 15 -10z m-425 -10 c-3 -5 -11 -10 -16 -10 -6
0 -7 5 -4 10 3 6 11 10 16 10 6 0 7 -4 4 -10z m470 0 c3 -5 -1 -10 -10 -10 -9
0 -13 5 -10 10 3 6 8 10 10 10 2 0 7 -4 10 -10z m222 4 c-3 -3 -12 -4 -19 -1
-8 3 -5 6 6 6 11 1 17 -2 13 -5z m127 -3 c3 -4 -6 -6 -19 -3 -14 2 -25 6 -25
8 0 8 39 4 44 -5z m-2984 -5 c0 -3 -4 -8 -10 -11 -5 -3 -10 -1 -10 4 0 6 5 11
10 11 6 0 10 -2 10 -4z m365 -7 c10 -14 1 -21 -19 -13 -9 3 -13 10 -10 15 7
12 21 11 29 -2z m92 5 c-3 -3 -12 -4 -19 -1 -8 3 -5 6 6 6 11 1 17 -2 13 -5z
m503 -4 c0 -5 -2 -10 -4 -10 -3 0 -8 5 -11 10 -3 6 -1 10 4 10 6 0 11 -4 11
-10z m95 -9 c-3 -6 -14 -10 -23 -10 -15 1 -15 2 1 6 9 2 17 9 17 15 0 6 3 9 6
5 3 -3 3 -10 -1 -16z m1155 8 c0 -15 -18 -19 -23 -6 -3 8 1 14 9 14 8 0 14 -4
14 -8z m573 4 c-7 -2 -19 -2 -25 0 -7 3 -2 5 12 5 14 0 19 -2 13 -5z m114 1
c-3 -3 -12 -4 -19 -1 -8 3 -5 6 6 6 11 1 17 -2 13 -5z m-2822 -14 c3 -6 -1 -7
-9 -4 -18 7 -21 14 -7 14 6 0 13 -4 16 -10z m126 -13 c-10 -9 -11 -8 -5 6 3
10 9 15 12 12 3 -3 0 -11 -7 -18z m351 16 c-6 -2 -9 -10 -6 -15 4 -7 2 -8 -5
-4 -13 9 -5 26 12 25 9 0 8 -2 -1 -6z m315 -6 c-2 -6 -12 -12 -23 -13 -43 -1
-42 20 1 24 18 1 25 -2 22 -11z m138 3 c3 -6 -1 -7 -9 -4 -18 7 -21 14 -7 14
6 0 13 -4 16 -10z m445 0 c0 -5 -4 -10 -10 -10 -5 0 -10 5 -10 10 0 6 5 10 10
10 6 0 10 -4 10 -10z m307 4 c-3 -3 -12 -4 -19 -1 -8 3 -5 6 6 6 11 1 17 -2
13 -5z m173 -4 c0 -5 -2 -10 -4 -10 -3 0 -8 5 -11 10 -3 6 -1 10 4 10 6 0 11
-4 11 -10z m320 1 c0 -4 12 -6 28 -3 21 3 24 2 15 -8 -7 -8 -22 -10 -42 -5
-32 7 -43 25 -16 25 8 0 15 -4 15 -9z m594 0 c3 -5 0 -11 -7 -14 -8 -3 -14 1
-14 9 0 16 13 19 21 5z m165 -7 c9 -8 -45 -2 -64 6 -14 7 -8 8 20 3 22 -3 42
-7 44 -9z m-2739 -4 c11 -8 8 -9 -14 -6 -16 3 -31 8 -34 11 -10 9 33 5 48 -5z
m140 6 c0 -3 -4 -8 -10 -11 -5 -3 -10 -1 -10 4 0 6 5 11 10 11 6 0 10 -2 10
-4z m34 -3 c8 -8 13 -10 43 -12 13 -1 14 -4 6 -12 -7 -7 -19 -8 -30 -4 -10 5
-22 9 -27 9 -12 1 -20 26 -8 26 5 0 12 -3 16 -7z m450 -8 c-4 -8 -10 -15 -15
-15 -4 0 -6 7 -3 15 4 8 10 15 15 15 4 0 6 -7 3 -15z m786 5 c0 -13 -11 -13
-30 0 -12 8 -11 10 8 10 12 0 22 -4 22 -10z m417 0 c13 0 13 -3 3 -15 -7 -8
-18 -15 -24 -15 -6 0 -4 5 4 10 13 8 13 10 -2 10 -9 0 -18 -4 -20 -10 -2 -6
-8 -6 -18 0 -13 8 -12 10 3 10 11 0 15 4 11 12 -5 8 -2 9 10 5 10 -4 25 -7 33
-7z m673 -6 c0 -2 -9 -4 -21 -4 -11 0 -18 4 -14 10 5 8 35 3 35 -6z m120 12
c0 -11 -19 -15 -25 -6 -3 5 1 10 9 10 9 0 16 -2 16 -4z m-2916 -23 c-10 -7
-23 -13 -28 -12 -6 0 -5 3 2 6 6 2 10 9 7 13 -3 5 4 8 15 7 20 -1 20 -2 4 -14z
m696 10 c0 -5 -15 -8 -34 -8 -19 0 -32 3 -29 8 2 4 17 7 34 7 16 0 29 -3 29
-7z m323 -12 c14 -14 -10 -23 -43 -16 -29 6 -37 15 -23 28 8 9 53 1 66 -12z
m314 13 c-3 -3 -12 -4 -19 -1 -8 3 -5 6 6 6 11 1 17 -2 13 -5z m213 2 c0 -11
-19 -15 -25 -6 -3 5 1 10 9 10 9 0 16 -2 16 -4z m220 -6 c0 -5 -7 -10 -16 -10
-8 0 -12 5 -9 10 3 6 10 10 16 10 5 0 9 -4 9 -10z m605 1 c3 -6 -3 -15 -14
-20 -25 -14 -41 -14 -21 -1 11 7 11 10 2 10 -7 0 -10 5 -7 10 8 13 32 13 40 1z
m-2310 -11 c13 -6 15 -9 5 -9 -8 0 -22 4 -30 9 -18 12 -2 12 25 0z m309 1 c4
-5 -3 -7 -14 -4 -23 6 -26 13 -6 13 8 0 17 -4 20 -9z m356 5 c0 -2 -7 -9 -15
-16 -13 -11 -14 -10 -9 4 5 14 24 23 24 12z m435 -6 c3 -6 -1 -7 -9 -4 -18 7
-21 14 -7 14 6 0 13 -4 16 -10z m225 -2 c0 -11 -12 -10 -30 2 -12 7 -10 9 8 7
12 0 22 -5 22 -9z m410 2 c0 -5 -4 -10 -10 -10 -5 0 -10 5 -10 10 0 6 5 10 10
10 6 0 10 -4 10 -10z m610 0 c0 -5 -5 -10 -11 -10 -5 0 -7 5 -4 10 3 6 8 10
11 10 2 0 4 -4 4 -10z m-2009 -23 c-10 -9 -11 -8 -5 6 3 10 9 15 12 12 3 -3 0
-11 -7 -18z m169 13 c0 -5 -7 -10 -16 -10 -8 0 -12 5 -9 10 3 6 10 10 16 10 5
0 9 -4 9 -10z m34 2 c3 -5 -1 -9 -9 -9 -8 0 -12 4 -9 9 3 4 7 8 9 8 2 0 6 -4
9 -8z m163 2 c-3 -3 -12 -4 -19 -1 -8 3 -5 6 6 6 11 1 17 -2 13 -5z m297 -9
c-6 -16 -34 -21 -34 -7 0 13 11 22 26 22 8 0 11 -6 8 -15z m396 -1 c0 -2 -7
-4 -15 -4 -8 0 -15 4 -15 10 0 5 7 7 15 4 8 -4 15 -8 15 -10z m167 10 c-3 -3
-12 -4 -19 -1 -8 3 -5 6 6 6 11 1 17 -2 13 -5z m59 -9 c-1 -8 -6 -18 -11 -22
-4 -4 -5 -2 -1 5 5 7 1 12 -11 13 -16 0 -16 1 2 9 11 5 21 9 22 9 1 1 0 -6 -1
-14z m154 11 c0 -3 -4 -8 -10 -11 -5 -3 -10 -1 -10 4 0 6 5 11 10 11 6 0 10
-2 10 -4z m85 -13 c-2 -10 -4 -19 -4 -21 -1 -2 -6 0 -11 3 -8 5 -7 11 1 21 15
18 18 18 14 -3z m310 7 c13 -6 15 -9 5 -9 -8 0 -22 4 -30 9 -18 12 -2 12 25 0z
m230 -9 c-3 -6 -11 -11 -17 -11 -6 0 -6 6 2 15 14 17 26 13 15 -4z m118 12
c-7 -2 -19 -2 -25 0 -7 3 -2 5 12 5 14 0 19 -2 13 -5z m-2438 -13 c3 -5 -1
-10 -10 -10 -9 0 -13 5 -10 10 3 6 8 10 10 10 2 0 7 -4 10 -10z m63 -2 c-2 -6
6 -13 17 -15 31 -6 48 -13 43 -18 -7 -7 -78 15 -78 24 0 8 10 21 17 21 2 0 2
-5 1 -12z m47 2 c-3 -5 -12 -10 -18 -10 -7 0 -6 4 3 10 19 12 23 12 15 0z
m205 0 c0 -5 -7 -7 -15 -4 -8 4 -15 8 -15 10 0 2 7 4 15 4 8 0 15 -4 15 -10z
m210 -15 c-13 -15 -50 -8 -50 9 0 8 11 11 30 8 23 -3 28 -7 20 -17z m188 15
c12 0 13 -3 5 -11 -13 -13 -53 -3 -53 13 0 5 7 7 16 4 9 -3 23 -6 32 -6z m224
-12 c-7 -7 -12 -8 -12 -2 0 14 12 26 19 19 2 -3 -1 -11 -7 -17z m1210 0 c-11
-11 -32 -3 -32 12 0 4 9 6 21 3 13 -4 17 -9 11 -15z m335 16 c-3 -3 -12 -4
-19 -1 -8 3 -5 6 6 6 11 1 17 -2 13 -5z m223 -4 c0 -5 -7 -7 -15 -4 -8 4 -15
8 -15 10 0 2 7 4 15 4 8 0 15 -4 15 -10z m-2850 -11 c0 -5 5 -7 12 -3 6 4 8 3
4 -4 -4 -7 -17 -8 -37 -2 -44 13 -48 20 -11 20 18 0 32 -5 32 -11z m500 1 c0
-5 -7 -7 -15 -4 -8 4 -15 8 -15 10 0 2 7 4 15 4 8 0 15 -4 15 -10z m390 -5 c0
-8 -4 -15 -10 -15 -5 0 -7 7 -4 15 4 8 8 15 10 15 2 0 4 -7 4 -15z m270 4 c0
-4 -6 -11 -13 -17 -15 -13 -43 1 -33 16 7 11 46 12 46 1z m360 1 c0 -5 -7 -10
-15 -10 -8 0 -15 5 -15 10 0 6 7 10 15 10 8 0 15 -4 15 -10z m462 -5 c3 0 9
-3 12 -6 4 -3 -6 -5 -21 -3 -36 3 -35 2 -28 14 4 6 12 7 18 3 7 -4 15 -8 19
-8z m101 8 c-7 -2 -19 -2 -25 0 -7 3 -2 5 12 5 14 0 19 -2 13 -5z m482 -2 c5
-1 4 -6 -2 -12 -7 -7 -19 -8 -30 -4 -10 5 -21 7 -25 7 -5 -1 -8 2 -8 7 0 5 12
8 28 6 15 -2 31 -4 37 -4z m205 -1 c0 -13 -11 -13 -30 0 -12 8 -11 10 8 10 12
0 22 -4 22 -10z m130 1 c0 -10 -26 -9 -36 2 -4 4 2 7 14 7 12 0 22 -4 22 -9z
m-2839 -16 c0 -5 -9 -11 -21 -13 -15 -3 -18 1 -14 13 7 17 35 17 35 0z m484 5
c3 -5 1 -10 -4 -10 -6 0 -11 5 -11 10 0 6 2 10 4 10 3 0 8 -4 11 -10z m160 0
c-3 -5 -11 -10 -16 -10 -6 0 -7 5 -4 10 3 6 11 10 16 10 6 0 7 -4 4 -10z m58
-23 c-5 -8 -8 -8 -10 0 -2 6 -13 9 -24 6 -14 -4 -18 -2 -13 10 5 13 10 14 30
5 13 -6 20 -16 17 -21z m292 1 c3 4 3 -2 -1 -12 -5 -12 -9 -14 -14 -6 -6 9 -9
9 -15 0 -6 -10 -11 -9 -21 4 -7 10 -15 13 -18 7 -7 -11 -66 8 -66 22 0 4 -5 5
-12 1 -6 -4 -8 -3 -5 3 5 8 29 5 76 -7 39 -10 73 -15 76 -12z m116 9 c-10 -9
-11 -8 -5 6 3 10 9 15 12 12 3 -3 0 -11 -7 -18z m1179 13 c0 -5 -6 -10 -14
-10 -8 0 -18 5 -21 10 -3 6 3 10 14 10 12 0 21 -4 21 -10z m450 6 c0 -3 -4 -8
-10 -11 -5 -3 -10 -1 -10 4 0 6 5 11 10 11 6 0 10 -2 10 -4z m-2315 -16 c3 -6
-1 -7 -9 -4 -18 7 -21 14 -7 14 6 0 13 -4 16 -10z m729 -5 c-4 -8 -12 -15 -20
-15 -8 0 -11 6 -8 15 4 8 12 15 20 15 8 0 11 -6 8 -15z m381 5 c-3 -5 -10 -10
-16 -10 -5 0 -9 5 -9 10 0 6 7 10 16 10 8 0 12 -4 9 -10z m785 0 c0 -5 -5 -10
-11 -10 -5 0 -7 5 -4 10 3 6 8 10 11 10 2 0 4 -4 4 -10z m62 3 c-6 -2 -10 -9
-6 -14 3 -5 -2 -9 -12 -9 -13 0 -14 3 -4 15 7 8 18 15 24 14 7 0 6 -2 -2 -6z
m163 -3 c-3 -5 -11 -10 -16 -10 -6 0 -7 5 -4 10 3 6 11 10 16 10 6 0 7 -4 4
-10z m30 -11 c-10 -15 -25 -10 -19 6 4 8 10 12 15 9 5 -3 7 -10 4 -15z m-2505
7 c0 -2 -7 -9 -15 -16 -12 -10 -15 -10 -15 4 0 9 7 16 15 16 8 0 15 -2 15 -4z
m30 -11 c0 -8 -7 -15 -16 -15 -14 0 -14 3 -4 15 7 8 14 15 16 15 2 0 4 -7 4
-15z m513 4 c9 0 17 -5 17 -10 0 -12 -71 -1 -85 13 -7 7 0 8 20 4 17 -4 38 -7
48 -7z m166 -5 c10 -9 -12 -21 -33 -17 -16 3 -23 10 -19 19 5 13 37 11 52 -2z
m411 12 c0 -2 -7 -9 -15 -16 -13 -11 -14 -10 -9 4 5 14 24 23 24 12z m40 -17
c0 -11 -28 -24 -36 -17 -2 3 -2 12 2 21 6 16 34 12 34 -4z m365 10 c10 -16 -1
-22 -26 -14 -17 6 -19 9 -8 16 19 12 26 11 34 -2z m433 0 c-2 -6 -7 -10 -11
-10 -4 1 -16 1 -27 1 -11 0 -20 5 -20 10 0 6 14 10 31 10 17 0 29 -5 27 -11z
m573 -12 c-13 -13 -26 -3 -16 12 3 6 11 8 17 5 6 -4 6 -10 -1 -17z m-2477 -2
c-4 -8 -8 -15 -10 -15 -2 0 -4 7 -4 15 0 8 4 15 10 15 5 0 7 -7 4 -15z m151 5
c-3 -5 -12 -7 -20 -3 -21 7 -19 13 6 13 11 0 18 -4 14 -10z m92 4 c-3 -3 -12
-4 -19 -1 -8 3 -5 6 6 6 11 1 17 -2 13 -5z m923 -14 c-6 -11 -15 -20 -20 -20
-14 0 -12 6 6 24 21 22 27 20 14 -4z m597 14 c-3 -3 -12 -4 -19 -1 -8 3 -5 6
6 6 11 1 17 -2 13 -5z m173 2 c0 -3 -4 -8 -10 -11 -5 -3 -10 -1 -10 4 0 6 5
11 10 11 6 0 10 -2 10 -4z m140 -6 c8 -5 11 -10 5 -10 -5 0 -17 5 -25 10 -8 5
-10 10 -5 10 6 0 17 -5 25 -10z m287 4 c-3 -3 -12 -4 -19 -1 -8 3 -5 6 6 6 11
1 17 -2 13 -5z m147 -9 c-6 -16 -24 -21 -24 -7 0 11 11 22 21 22 5 0 6 -7 3
-15z m231 5 c3 -5 -1 -10 -9 -10 -9 0 -16 5 -16 10 0 6 4 10 9 10 6 0 13 -4
16 -10z m-2672 -12 c12 -7 32 -11 45 -9 25 3 30 -16 7 -26 -9 -3 -24 2 -34 11
-11 10 -22 13 -25 8 -6 -10 -56 -4 -56 7 0 23 30 27 63 9z m214 6 c-3 -3 -12
-4 -19 -1 -8 3 -5 6 6 6 11 1 17 -2 13 -5z m258 -4 c-3 -5 -10 -10 -16 -10 -5
0 -9 5 -9 10 0 6 7 10 16 10 8 0 12 -4 9 -10z m145 3 c0 -5 19 -9 42 -10 23
-2 47 -8 52 -14 10 -11 -28 -8 -84 6 -8 2 -18 4 -22 4 -12 1 -9 21 2 21 6 0
10 -3 10 -7z m253 -19 c-6 -15 -13 -17 -37 -8 -12 5 -14 10 -6 19 14 17 50 8
43 -11z m191 11 c-4 -8 -10 -15 -15 -15 -4 0 -6 7 -3 15 4 8 10 15 15 15 4 0
6 -7 3 -15z m103 9 c-3 -3 -12 -4 -19 -1 -8 3 -5 6 6 6 11 1 17 -2 13 -5z
m303 -6 c0 -10 3 -9 9 1 5 8 11 9 15 3 9 -15 -7 -22 -32 -15 -25 6 -30 23 -7
23 8 0 15 -6 15 -12z m812 -10 c-11 -11 -32 -3 -32 12 0 4 9 6 21 3 13 -4 17
-9 11 -15z m208 7 c0 -8 -6 -15 -14 -15 -17 0 -28 14 -19 24 12 12 33 6 33 -9z
m-2323 -1 c-3 -3 -12 -4 -19 -1 -8 3 -5 6 6 6 11 1 17 -2 13 -5z m1063 -4 c0
-5 -2 -10 -4 -10 -3 0 -8 5 -11 10 -3 6 -1 10 4 10 6 0 11 -4 11 -10z m304 -5
c-4 -8 -11 -15 -16 -15 -6 0 -5 6 2 15 7 8 14 15 16 15 2 0 1 -7 -2 -15z m271
5 c13 -5 14 -9 5 -9 -8 0 -24 4 -35 9 -13 5 -14 9 -5 9 8 0 24 -4 35 -9z m145
0 c0 -5 -5 -10 -11 -10 -5 0 -7 5 -4 10 3 6 8 10 11 10 2 0 4 -4 4 -10z m113
3 c-7 -2 -19 -2 -25 0 -7 3 -2 5 12 5 14 0 19 -2 13 -5z m466 -15 c1 6 6 12
12 12 13 0 7 -22 -7 -27 -17 -5 -37 14 -29 28 6 9 10 8 16 -7 4 -10 8 -13 8
-6z m-2322 6 c-3 -3 -12 -4 -19 -1 -8 3 -5 6 6 6 11 1 17 -2 13 -5z m357 -3
c3 -4 3 -11 0 -14 -8 -7 -44 4 -44 14 0 12 37 12 44 0z m366 -6 c0 -8 -7 -15
-15 -15 -16 0 -20 12 -8 23 11 12 23 8 23 -8z m224 0 c-4 -8 -12 -15 -20 -15
-8 0 -14 7 -14 15 0 8 9 15 20 15 13 0 18 -5 14 -15z m226 5 c0 -5 -7 -7 -15
-4 -8 4 -15 8 -15 10 0 2 7 4 15 4 8 0 15 -4 15 -10z m191 -13 c-10 -9 -11 -8
-5 6 3 10 9 15 12 12 3 -3 0 -11 -7 -18z m429 13 c0 -5 -6 -10 -14 -10 -8 0
-18 5 -21 10 -3 6 3 10 14 10 12 0 21 -4 21 -10z m-2160 -4 c0 -3 -4 -8 -10
-11 -5 -3 -10 -1 -10 4 0 6 5 11 10 11 6 0 10 -2 10 -4z m60 -27 c0 -6 -7 -8
-16 -5 -9 3 -23 6 -31 6 -13 0 -13 3 -3 15 9 11 17 12 31 4 10 -5 19 -15 19
-20z m208 19 c-2 -6 -10 -14 -16 -16 -7 -2 -10 2 -6 12 7 18 28 22 22 4z m149
6 c-3 -3 -12 -4 -19 -1 -8 3 -5 6 6 6 11 1 17 -2 13 -5z m123 -3 c0 -4 -11 -6
-25 -3 -14 2 -25 6 -25 8 0 2 11 4 25 4 14 0 25 -4 25 -9z m220 -1 c0 -5 -5
-10 -11 -10 -5 0 -7 5 -4 10 3 6 8 10 11 10 2 0 4 -4 4 -10z m155 0 c3 -5 -1
-10 -9 -10 -9 0 -16 5 -16 10 0 6 4 10 9 10 6 0 13 -4 16 -10z m255 -11 c0
-18 -24 -21 -37 -4 -7 11 -13 13 -13 7 0 -7 -5 -12 -11 -12 -8 0 -8 4 0 14 12
14 61 10 61 -5z m203 6 c0 -6 -7 -11 -16 -13 -12 -3 -15 1 -11 13 7 17 25 17
27 0z m97 8 c-1 -14 -30 -47 -35 -41 -3 3 1 12 9 21 8 8 12 17 9 21 -4 3 -1 6
5 6 7 0 12 -3 12 -7z m735 -3 c3 -5 -1 -10 -9 -10 -9 0 -16 5 -16 10 0 6 4 10
9 10 6 0 13 -4 16 -10z m312 4 c-3 -3 -12 -4 -19 -1 -8 3 -5 6 6 6 11 1 17 -2
13 -5z m249 -9 c18 -14 17 -14 -13 -15 -23 0 -33 5 -33 15 0 19 21 19 46 0z
m-2456 -5 c0 -12 -28 -25 -36 -17 -9 9 6 27 22 27 8 0 14 -5 14 -10z m260 0
c0 -5 -2 -10 -4 -10 -3 0 -8 5 -11 10 -3 6 -1 10 4 10 6 0 11 -4 11 -10z m268
-4 c22 -7 31 -26 13 -26 -19 0 -61 20 -61 29 0 10 12 9 48 -3z m558 -13 c-10
-10 -19 5 -10 18 6 11 8 11 12 0 2 -7 1 -15 -2 -18z m139 17 c3 -5 -3 -10 -14
-10 -11 0 -23 5 -26 10 -3 6 3 10 14 10 11 0 23 -4 26 -10z m250 0 c-3 -5 -13
-10 -21 -10 -8 0 -12 5 -9 10 3 6 13 10 21 10 8 0 12 -4 9 -10z m158 3 c-7 -2
-19 -2 -25 0 -7 3 -2 5 12 5 14 0 19 -2 13 -5z m-1816 -13 c8 0 13 -6 10 -12
-3 -11 -55 -13 -66 -3 -8 9 13 26 26 21 8 -3 21 -6 30 -6z m227 -5 c-4 -8 -12
-15 -20 -15 -8 0 -14 7 -14 15 0 8 9 15 20 15 13 0 18 -5 14 -15z m253 9 c-3
-3 -12 -4 -19 -1 -8 3 -5 6 6 6 11 1 17 -2 13 -5z m388 -4 c18 -8 17 -9 -7 -9
-16 -1 -28 4 -28 9 0 12 8 12 35 0z m199 -5 c-4 -8 -8 -15 -10 -15 -2 0 -4 7
-4 15 0 8 4 15 10 15 5 0 7 -7 4 -15z m31 -6 c-10 -15 -25 -10 -19 6 4 8 10
12 15 9 5 -3 7 -10 4 -15z m205 17 c0 -3 -4 -8 -10 -11 -5 -3 -10 -1 -10 4 0
6 5 11 10 11 6 0 10 -2 10 -4z m390 -6 c0 -5 -7 -10 -16 -10 -8 0 -12 5 -9 10
3 6 10 10 16 10 5 0 9 -4 9 -10z m320 -6 c0 -2 -9 -4 -21 -4 -11 0 -18 4 -14
10 5 8 35 3 35 -6z m270 6 c8 -5 11 -10 5 -10 -5 0 -17 5 -25 10 -8 5 -10 10
-5 10 6 0 17 -5 25 -10z m-2012 -12 c-3 -7 -13 -15 -24 -17 -16 -3 -17 -1 -5
13 16 19 34 21 29 4z m302 -4 c0 -2 -9 -4 -20 -4 -11 0 -20 4 -20 9 0 5 9 7
20 4 11 -3 20 -7 20 -9z m200 -5 c0 -5 -7 -9 -15 -9 -15 0 -20 12 -9 23 8 8
24 -1 24 -14z m387 5 c3 -7 10 -11 16 -7 5 3 7 1 4 -5 -4 -5 -15 -9 -25 -7 -9
2 -20 4 -23 4 -17 2 -15 27 3 28 10 1 22 -5 25 -13z m217 10 c24 -9 19 -24 -9
-24 -18 0 -23 4 -19 15 7 17 7 17 28 9z m86 -1 c-1 -14 -30 -47 -35 -41 -3 3
1 12 9 21 8 8 12 17 9 21 -4 3 -1 6 5 6 7 0 12 -3 12 -7z m35 -3 c3 -5 -1 -10
-10 -10 -9 0 -13 5 -10 10 3 6 8 10 10 10 2 0 7 -4 10 -10z m675 0 c0 -5 -2
-10 -4 -10 -3 0 -8 5 -11 10 -3 6 -1 10 4 10 6 0 11 -4 11 -10z m390 0 c0 -5
-4 -10 -10 -10 -5 0 -10 5 -10 10 0 6 5 10 10 10 6 0 10 -4 10 -10z m-2500
-10 c8 -5 11 -12 8 -16 -10 -9 -38 3 -38 16 0 12 10 13 30 0z m873 3 c-7 -2
-19 -2 -25 0 -7 3 -2 5 12 5 14 0 19 -2 13 -5z m597 -3 c0 -5 -5 -10 -11 -10
-5 0 -7 5 -4 10 3 6 8 10 11 10 2 0 4 -4 4 -10z m274 1 c11 -4 15 -10 10 -13
-13 -8 -64 2 -64 13 0 11 27 11 54 0z m256 0 c0 -5 -9 -7 -20 -4 -11 3 -20 7
-20 9 0 2 9 4 20 4 11 0 20 -4 20 -9z m-1950 -12 c0 -5 4 -7 10 -4 5 3 18 2
27 -4 11 -6 24 -6 35 0 14 7 16 6 12 -6 -7 -16 -35 -15 -112 4 -2 1 0 6 3 11
8 13 25 13 25 -1z m262 -2 c7 -8 19 -12 27 -9 8 3 11 0 7 -7 -4 -6 -21 -8 -44
-5 -43 7 -46 9 -37 23 9 15 31 14 47 -2z m481 3 c8 0 8 -3 0 -11 -13 -13 -43
-5 -43 12 0 6 7 8 16 5 9 -3 21 -6 27 -6z m381 1 c16 -6 17 -9 6 -16 -9 -5
-15 -4 -18 4 -3 9 -7 9 -18 0 -11 -9 -14 -8 -14 5 0 17 13 19 44 7z m749 2
c-7 -2 -19 -2 -25 0 -7 3 -2 5 12 5 14 0 19 -2 13 -5z m122 -3 c3 -5 2 -10 -4
-10 -5 0 -13 5 -16 10 -3 6 -2 10 4 10 5 0 13 -4 16 -10z m160 0 c3 -5 -1 -10
-9 -10 -9 0 -16 5 -16 10 0 6 4 10 9 10 6 0 13 -4 16 -10z m-2291 -6 c28 -11
17 -19 -26 -20 -24 0 -34 1 -24 4 15 3 16 6 5 13 -11 7 -9 9 8 9 12 0 28 -3
37 -6z m705 0 c39 -8 40 -19 2 -19 -16 0 -27 3 -25 7 2 3 -4 9 -13 11 -28 7 1
8 36 1z m328 0 c-3 -3 -12 -4 -19 -1 -8 3 -5 6 6 6 11 1 17 -2 13 -5z m254
-17 c-10 -9 -11 -8 -5 6 3 10 9 15 12 12 3 -3 0 -11 -7 -18z m219 13 c0 -5 -7
-10 -16 -10 -8 0 -12 5 -9 10 3 6 10 10 16 10 5 0 9 -4 9 -10z m557 4 c-3 -3
-12 -4 -19 -1 -8 3 -5 6 6 6 11 1 17 -2 13 -5z m113 -4 c0 -5 -4 -10 -10 -10
-5 0 -10 5 -10 10 0 6 5 10 10 10 6 0 10 -4 10 -10z m-1690 -23 c0 -2 -11 -4
-25 -5 -18 -1 -23 2 -19 13 5 11 11 12 25 4 10 -5 19 -11 19 -12z m81 5 c-7
-2 -18 1 -23 6 -8 8 -4 9 13 5 13 -4 18 -8 10 -11z m369 4 c0 -9 -7 -12 -20
-9 -11 3 -17 9 -14 14 8 14 34 10 34 -5z m390 4 c0 -5 -4 -10 -10 -10 -5 0
-10 5 -10 10 0 6 5 10 10 10 6 0 10 -4 10 -10z m215 0 c-3 -5 -11 -10 -16 -10
-6 0 -7 5 -4 10 3 6 11 10 16 10 6 0 7 -4 4 -10z m102 4 c-3 -3 -12 -4 -19 -1
-8 3 -5 6 6 6 11 1 17 -2 13 -5z m292 -3 c9 -6 6 -8 -13 -8 -14 0 -23 3 -20 8
7 11 15 11 33 0z m441 -7 c0 -2 -7 -4 -15 -4 -8 0 -15 4 -15 10 0 5 7 7 15 4
8 -4 15 -8 15 -10z m23 1 c-3 -9 -8 -14 -10 -11 -3 3 -2 9 2 15 9 16 15 13 8
-4z m-2323 -5 c0 -13 -12 -19 -26 -13 -21 8 -17 22 6 20 11 -1 20 -4 20 -7z
m185 0 c3 -5 -1 -10 -9 -10 -9 0 -16 5 -16 10 0 6 4 10 9 10 6 0 13 -4 16 -10z
m519 1 c4 -5 -3 -7 -14 -4 -23 6 -26 13 -6 13 8 0 17 -4 20 -9z m606 -6 c0
-16 -9 -19 -34 -9 -20 8 -11 24 15 24 10 0 19 -7 19 -15z m200 9 c0 -8 -19
-13 -24 -6 -3 5 1 9 9 9 8 0 15 -2 15 -3z m103 -1 c-7 -2 -19 -2 -25 0 -7 3
-2 5 12 5 14 0 19 -2 13 -5z m587 -5 c0 -11 -28 -10 -35 1 -3 6 4 9 15 8 11
-1 20 -5 20 -9z m199 3 c11 -7 9 -10 -8 -16 -13 -4 -25 -4 -28 -1 -4 3 2 6 13
6 16 0 17 2 4 10 -8 5 -10 10 -5 10 6 0 16 -4 24 -9z m-2369 -17 c0 -8 -5 -12
-10 -9 -6 4 -8 11 -5 16 9 14 15 11 15 -7z m455 8 c5 -1 5 -6 -2 -13 -11 -11
-63 -2 -63 11 0 6 32 7 65 2z m290 -2 c19 -8 19 -9 -2 -9 -12 -1 -25 4 -28 9
-7 12 2 12 30 0z m165 2 c0 -14 -11 -21 -26 -15 -8 3 -11 9 -8 14 7 11 34 12
34 1z m38 -11 c-7 -11 -16 -17 -20 -15 -14 9 -9 22 10 27 9 3 18 5 20 6 1 0
-3 -8 -10 -18z m89 5 c0 -8 -6 -12 -15 -9 -11 5 -11 7 0 14 7 5 13 9 14 9 0 0
1 -6 1 -14z m483 4 c0 -5 -4 -10 -10 -10 -5 0 -10 5 -10 10 0 6 5 10 10 10 6
0 10 -4 10 -10z m370 0 c0 -13 -11 -13 -30 0 -12 8 -11 10 8 10 12 0 22 -4 22
-10z m320 0 c0 -5 -5 -10 -11 -10 -5 0 -7 5 -4 10 3 6 8 10 11 10 2 0 4 -4 4
-10z m110 0 c0 -5 -2 -10 -4 -10 -3 0 -8 5 -11 10 -3 6 -1 10 4 10 6 0 11 -4
11 -10z m114 -3 c16 -12 16 -14 2 -14 -9 0 -16 4 -16 9 0 5 -4 6 -10 3 -5 -3
-10 -1 -10 4 0 15 12 14 34 -2z m-2546 -6 c7 -1 11 -5 8 -10 -7 -10 -43 -3
-51 9 -3 5 3 7 12 5 10 -2 24 -4 31 -4z m157 0 c11 -5 25 -5 31 0 7 5 11 3 11
-6 0 -13 -13 -14 -69 -6 -5 0 -8 6 -8 11 0 12 7 12 35 1z m221 -12 c6 -10 -17
-12 -40 -3 -9 3 -14 10 -11 14 6 10 43 1 51 -11z m237 8 c4 3 7 2 7 -4 0 -6
-11 -10 -24 -10 -17 0 -23 4 -19 14 4 9 9 10 18 3 6 -5 15 -7 18 -3z m87 3
c20 -6 21 -8 5 -8 -11 0 -31 4 -45 8 -20 6 -21 8 -5 8 11 0 31 -4 45 -8z m750
0 c0 -5 -4 -10 -10 -10 -5 0 -10 5 -10 10 0 6 5 10 10 10 6 0 10 -4 10 -10z
m34 -11 c-8 -14 -24 -10 -24 6 0 9 6 12 15 9 8 -4 12 -10 9 -15z m186 11 c0
-5 -7 -10 -16 -10 -8 0 -12 5 -9 10 3 6 10 10 16 10 5 0 9 -4 9 -10z m130 0
c12 -8 10 -10 -10 -10 -14 0 -32 5 -40 10 -12 8 -10 10 10 10 14 0 32 -5 40
-10z m245 0 c3 -5 -1 -10 -9 -10 -9 0 -16 5 -16 10 0 6 4 10 9 10 6 0 13 -4
16 -10z m310 0 c3 -5 -1 -10 -9 -10 -9 0 -16 5 -16 10 0 6 4 10 9 10 6 0 13
-4 16 -10z m-2305 -10 c12 -8 11 -10 -7 -10 -13 0 -23 5 -23 10 0 13 11 13 30
0z m791 -8 c-7 -2 -18 1 -23 6 -8 8 -4 9 13 5 13 -4 18 -8 10 -11z m69 3 c-7
-8 -20 -14 -29 -14 -13 1 -13 2 2 6 9 2 15 9 12 14 -4 5 1 9 11 9 13 0 14 -3
4 -15z m445 5 c3 -6 -1 -7 -9 -4 -18 7 -21 14 -7 14 6 0 13 -4 16 -10z m157
-12 c-7 -7 -12 -8 -12 -2 0 6 3 14 7 17 3 4 9 5 12 2 2 -3 -1 -11 -7 -17z
m745 16 c-3 -3 -12 -4 -19 -1 -8 3 -5 6 6 6 11 1 17 -2 13 -5z m133 -4 c0 -5
-4 -10 -10 -10 -5 0 -10 5 -10 10 0 6 5 10 10 10 6 0 10 -4 10 -10z m-1980
-10 c0 -5 -4 -10 -10 -10 -5 0 -10 5 -10 10 0 6 5 10 10 10 6 0 10 -4 10 -10z
m280 1 c17 -5 21 -9 12 -15 -15 -9 -72 2 -72 15 0 10 23 10 60 0z m440 -1 c0
-5 -7 -10 -15 -10 -8 0 -15 5 -15 10 0 6 7 10 15 10 8 0 15 -4 15 -10z m64 -5
c-4 -8 -11 -15 -16 -15 -6 0 -5 6 2 15 7 8 14 15 16 15 2 0 1 -7 -2 -15z m37
2 c-6 -8 -8 -17 -4 -20 3 -4 -1 -7 -10 -7 -20 0 -21 6 -4 25 15 18 33 20 18 2z
m559 -3 c7 -7 -22 -24 -40 -23 -10 0 -8 3 5 9 16 7 17 9 3 9 -9 1 -20 6 -24
12 -5 9 1 10 22 5 16 -4 31 -10 34 -12z m630 12 c0 -3 -4 -8 -10 -11 -5 -3
-10 -1 -10 4 0 6 5 11 10 11 6 0 10 -2 10 -4z m40 -17 c0 -4 -7 -6 -15 -3 -8
4 -15 10 -15 15 0 4 7 6 15 3 8 -4 15 -10 15 -15z m-2330 -4 c0 -8 -2 -15 -4
-15 -2 0 -6 7 -10 15 -3 8 -1 15 4 15 6 0 10 -7 10 -15z m107 9 c-3 -3 -12 -4
-19 -1 -8 3 -5 6 6 6 11 1 17 -2 13 -5z m207 -3 c3 -5 -3 -11 -13 -14 -14 -3
-18 -1 -14 9 6 16 19 18 27 5z m386 -1 c12 -8 11 -10 -7 -10 -12 0 -25 5 -28
10 -8 13 15 13 35 0z m167 4 c-3 -3 -12 -4 -19 -1 -8 3 -5 6 6 6 11 1 17 -2
13 -5z m603 -10 c0 -8 -5 -12 -10 -9 -6 4 -8 11 -5 16 9 14 15 11 15 -7z m304
7 c4 -5 -3 -7 -14 -4 -23 6 -26 13 -6 13 8 0 17 -4 20 -9z m456 -1 c11 -8 7
-9 -15 -4 -37 8 -45 14 -19 14 10 0 26 -5 34 -10z m-2004 -12 c-2 -15 -8 -18
-36 -18 -30 0 -24 18 8 23 15 2 28 5 29 6 1 0 0 -5 -1 -11z m171 -3 c0 -16
-22 -21 -32 -6 -3 5 3 12 12 14 10 3 18 5 19 6 0 0 1 -6 1 -14z m213 6 c0 -5
-9 -11 -21 -14 -16 -4 -18 -3 -8 9 13 16 29 19 29 5z m297 3 c-3 -3 -12 -4
-19 -1 -8 3 -5 6 6 6 11 1 17 -2 13 -5z m328 -13 c2 -4 -9 -5 -26 -3 -16 2
-29 8 -29 12 0 9 48 1 55 -9z m102 13 c-3 -3 -12 -4 -19 -1 -8 3 -5 6 6 6 11
1 17 -2 13 -5z m499 -7 c4 -4 -2 -7 -14 -7 -11 0 -24 5 -27 10 -7 11 30 8 41
-3z m-1584 -19 c-7 -7 -12 -8 -12 -2 0 14 12 26 19 19 2 -3 -1 -11 -7 -17z
m182 8 c-3 -8 -13 -17 -22 -21 -13 -5 -13 -2 3 15 21 24 26 25 19 6z m71 4
c-4 -6 6 -10 22 -11 15 0 22 -3 15 -6 -7 -3 -25 -2 -39 2 -21 5 -24 8 -12 16
18 11 22 11 14 -1z m192 -13 c4 -6 -2 -8 -18 -4 -13 4 -28 7 -32 7 -5 0 -6 4
-3 9 7 11 44 3 53 -12z m68 13 c-3 -5 -12 -7 -20 -3 -21 7 -19 13 6 13 11 0
18 -4 14 -10z m92 4 c-3 -3 -12 -4 -19 -1 -8 3 -5 6 6 6 11 1 17 -2 13 -5z
m277 -2 c3 -5 -1 -9 -9 -9 -8 0 -15 4 -15 9 0 4 4 8 9 8 6 0 12 -4 15 -8z
m243 2 c-3 -3 -12 -4 -19 -1 -8 3 -5 6 6 6 11 1 17 -2 13 -5z m373 -3 c0 -5
-7 -11 -14 -14 -10 -4 -13 -1 -9 9 6 15 23 19 23 5z m129 -17 c-6 -8 -19 -14
-28 -13 -12 0 -11 2 4 9 11 5 14 9 7 9 -7 1 -11 5 -7 11 3 5 12 7 21 3 11 -4
12 -9 3 -19z m224 19 c-7 -2 -19 -2 -25 0 -7 3 -2 5 12 5 14 0 19 -2 13 -5z
m217 -8 c0 -1 -11 -5 -25 -7 -20 -4 -23 -2 -14 8 8 10 39 10 39 -1z m-1340 1
c0 -2 -9 -6 -20 -9 -11 -3 -18 -1 -14 4 5 9 34 13 34 5z m230 -18 c0 -6 -7 -7
-16 -4 -9 3 -20 6 -25 6 -5 0 -9 4 -9 9 0 4 11 6 25 3 14 -2 25 -9 25 -14z
m245 12 c3 -5 1 -10 -4 -10 -6 0 -11 5 -11 10 0 6 2 10 4 10 3 0 8 -4 11 -10z
m345 -11 c-19 -5 -20 -7 -6 -8 11 -1 17 -4 13 -7 -11 -11 -37 5 -31 20 3 9 13
12 27 8 21 -6 21 -6 -3 -13z m-1505 1 c3 -5 -1 -10 -9 -10 -9 0 -16 5 -16 10
0 6 4 10 9 10 6 0 13 -4 16 -10z m245 -22 c0 -9 -18 -5 -67 13 -38 14 -26 17
22 6 25 -6 45 -14 45 -19z m210 23 c0 -5 -9 -11 -19 -14 -14 -3 -18 -1 -14 9
6 15 33 19 33 5z m90 2 c0 -11 -20 -40 -20 -29 0 5 -7 3 -15 -4 -13 -11 -14
-10 -9 4 3 9 14 16 23 16 14 0 14 2 1 10 -13 8 -12 10 3 10 9 0 17 -3 17 -7z
m468 -13 c-7 -11 -17 -20 -22 -20 -4 0 -3 6 3 13 6 8 8 17 4 20 -3 4 1 7 10 7
15 0 15 -3 5 -20z m196 12 c3 -5 -1 -9 -9 -9 -8 0 -15 4 -15 9 0 4 4 8 9 8 6
0 12 -4 15 -8z m126 -2 c12 -8 10 -10 -10 -10 -14 0 -32 5 -40 10 -12 8 -10
10 10 10 14 0 32 -5 40 -10z m290 -5 c-7 -8 -18 -15 -24 -14 -7 0 -6 2 2 6 6
2 10 9 6 14 -3 5 2 9 12 9 13 0 14 -3 4 -15z m270 5 c0 -5 -7 -7 -15 -4 -8 4
-15 8 -15 10 0 2 7 4 15 4 8 0 15 -4 15 -10z m160 0 c0 -5 -2 -10 -4 -10 -3 0
-8 5 -11 10 -3 6 -1 10 4 10 6 0 11 -4 11 -10z m-2356 -11 c-4 -7 -44 0 -44 7
0 2 11 3 24 2 14 -1 23 -5 20 -9z m186 1 c-8 -5 -19 -10 -25 -10 -5 0 -3 5 5
10 8 5 20 10 25 10 6 0 3 -5 -5 -10z m200 -11 c0 -14 -36 -11 -49 4 -8 11 -5
13 19 9 17 -2 30 -8 30 -13z m207 15 c-3 -3 -12 -4 -19 -1 -8 3 -5 6 6 6 11 1
17 -2 13 -5z m288 -4 c3 -6 -1 -7 -9 -4 -18 7 -21 14 -7 14 6 0 13 -4 16 -10z
m180 0 c-3 -5 -1 -10 6 -10 7 0 10 -3 6 -6 -9 -9 -28 6 -22 17 4 5 8 9 11 9 3
0 2 -4 -1 -10z m295 0 c0 -5 -2 -10 -4 -10 -3 0 -8 5 -11 10 -3 6 -1 10 4 10
6 0 11 -4 11 -10z m870 0 c0 -5 -2 -10 -4 -10 -3 0 -8 5 -11 10 -3 6 -1 10 4
10 6 0 11 -4 11 -10z m-602 -15 c11 -11 -6 -15 -36 -9 -18 4 -32 11 -32 17 0
9 58 3 68 -8z m672 7 c0 -5 -7 -9 -15 -9 -8 0 -15 4 -15 9 0 4 7 8 15 8 8 0
15 -4 15 -8z m-1821 -18 c39 -5 51 -11 51 -25 0 -12 -58 -2 -76 12 -6 5 -14 6
-17 2 -4 -3 -7 -1 -7 5 0 6 -7 9 -15 6 -8 -4 -15 -1 -15 6 0 8 8 10 23 6 12
-4 37 -9 56 -12z m101 6 c0 -5 -2 -10 -4 -10 -3 0 -8 5 -11 10 -3 6 -1 10 4
10 6 0 11 -4 11 -10z m95 0 c3 -5 1 -10 -5 -10 -6 0 -9 -4 -6 -9 3 -4 -7 -6
-22 -2 l-27 5 25 4 c23 4 24 5 5 13 -19 7 -19 8 2 8 12 1 25 -3 28 -9z m200 0
c3 -6 -1 -7 -9 -4 -18 7 -21 14 -7 14 6 0 13 -4 16 -10z m82 4 c-3 -3 -12 -4
-19 -1 -8 3 -5 6 6 6 11 1 17 -2 13 -5z m493 2 c0 -11 -19 -15 -25 -6 -3 5 1
10 9 10 9 0 16 -2 16 -4z m22 -28 c-8 -8 -9 -4 -5 13 4 13 8 18 11 10 2 -7 -1
-18 -6 -23z m265 26 c-3 -3 -12 -4 -19 -1 -8 3 -5 6 6 6 11 1 17 -2 13 -5z
m130 0 c-3 -3 -12 -4 -19 -1 -8 3 -5 6 6 6 11 1 17 -2 13 -5z m94 -17 c-10 -9
-11 -8 -5 6 3 10 9 15 12 12 3 -3 0 -11 -7 -18z m119 13 c0 -5 -7 -7 -15 -4
-8 4 -15 8 -15 10 0 2 7 4 15 4 8 0 15 -4 15 -10z m-1340 -16 c0 -2 -7 -4 -15
-4 -8 0 -15 4 -15 10 0 5 7 7 15 4 8 -4 15 -8 15 -10z m924 8 c3 -5 -1 -9 -9
-9 -8 0 -15 4 -15 9 0 4 4 8 9 8 6 0 12 -4 15 -8z m131 -2 c8 -13 -5 -13 -25
0 -13 8 -13 10 2 10 9 0 20 -4 23 -10z m112 4 c-3 -3 -12 -4 -19 -1 -8 3 -5 6
6 6 11 1 17 -2 13 -5z m204 -21 c-12 -20 -14 -14 -5 12 4 9 9 14 11 11 3 -2 0
-13 -6 -23z m-1164 11 c-3 -3 -12 -4 -19 -1 -8 3 -5 6 6 6 11 1 17 -2 13 -5z
m101 -15 c-19 -12 -25 -11 -25 5 0 8 8 11 20 8 14 -4 16 -7 5 -13z m141 17
c-2 -2 -17 -6 -34 -10 -22 -5 -26 -4 -15 4 14 9 59 15 49 6z m416 -17 c10 -10
12 -10 -36 -12 -30 -2 -35 1 -31 15 3 14 11 16 31 12 14 -4 30 -11 36 -15z
m115 11 c0 -5 -7 -10 -16 -10 -8 0 -12 5 -9 10 3 6 10 10 16 10 5 0 9 -4 9
-10z m345 0 c3 -6 -1 -7 -9 -4 -18 7 -21 14 -7 14 6 0 13 -4 16 -10z m108 3
c-7 -2 -19 -2 -25 0 -7 3 -2 5 12 5 14 0 19 -2 13 -5z m180 0 c-7 -2 -19 -2
-25 0 -7 3 -2 5 12 5 14 0 19 -2 13 -5z m-2241 -22 c-5 -3 -11 -12 -13 -19 -3
-10 -8 -10 -24 2 -20 14 -20 15 0 13 11 -1 19 3 18 10 -2 7 4 10 13 6 9 -3 11
-9 6 -12z m458 11 c0 -13 -12 -22 -22 -16 -10 6 -1 24 13 24 5 0 9 -4 9 -8z
m515 -13 c-4 -5 -12 -9 -18 -8 -9 0 -8 2 1 6 6 2 9 10 6 15 -4 7 -2 8 5 4 6
-4 9 -12 6 -17z m700 12 c3 -5 1 -12 -4 -15 -13 -8 -42 4 -35 15 7 12 31 12
39 0z m56 2 c-18 -4 -21 -7 -10 -13 18 -12 5 -24 -17 -16 -23 9 1 36 30 35 19
-2 18 -2 -3 -6z m-1817 -38 c-14 -19 -28 -35 -30 -35 -2 0 4 16 13 35 9 19 23
35 30 35 9 0 5 -12 -13 -35z m142 17 c-10 -2 -22 0 -28 6 -6 6 0 7 19 4 21 -5
23 -7 9 -10z m324 3 c19 -7 28 -14 20 -14 -8 0 -28 6 -45 14 -39 17 -21 18 25
0z m227 9 c-3 -3 -12 -4 -19 -1 -8 3 -5 6 6 6 11 1 17 -2 13 -5z m90 0 c-3 -3
-12 -4 -19 -1 -8 3 -5 6 6 6 11 1 17 -2 13 -5z m39 -23 c-4 -6 -15 -11 -24
-10 -14 0 -13 2 3 9 11 5 14 9 7 9 -7 1 -10 6 -6 12 4 7 10 7 16 1 6 -6 7 -15
4 -21z m1051 23 c-3 -3 -12 -4 -19 -1 -8 3 -5 6 6 6 11 1 17 -2 13 -5z m158
-4 c3 -5 -1 -10 -9 -10 -8 0 -18 5 -21 10 -3 6 1 10 9 10 8 0 18 -4 21 -10z
m105 0 c0 -13 -11 -13 -30 0 -12 8 -11 10 8 10 12 0 22 -4 22 -10z m110 -10
c-11 -21 -23 -23 -54 -11 -15 6 -16 10 -7 16 8 4 16 2 21 -5 5 -8 9 -7 13 4 4
9 13 16 22 16 13 0 14 -4 5 -20z m-1923 4 c-3 -3 -12 -4 -19 -1 -8 3 -5 6 6 6
11 1 17 -2 13 -5z m297 -8 c-3 -8 -13 -12 -25 -9 -27 7 -24 23 6 23 17 0 23
-4 19 -14z m503 8 c-3 -3 -12 -4 -19 -1 -8 3 -5 6 6 6 11 1 17 -2 13 -5z m948
-12 c-3 -3 -11 0 -18 7 -9 10 -8 11 6 5 10 -3 15 -9 12 -12z m95 11 c0 -17
-19 -37 -27 -29 -4 5 -2 11 5 13 6 3 10 9 6 14 -3 5 0 9 5 9 6 0 11 -3 11 -7z
m-2020 -25 c0 -6 -10 -8 -22 -4 -13 3 -27 6 -31 6 -5 0 -6 4 -3 9 7 11 56 2
56 -11z m750 10 c0 -4 -7 -8 -15 -8 -8 0 -15 4 -15 8 0 5 7 9 15 9 8 0 15 -4
15 -9z m780 8 c0 -11 -19 -15 -25 -6 -3 5 1 10 9 10 9 0 16 -2 16 -4z m180 -6
c0 -5 -4 -10 -9 -10 -6 0 -13 5 -16 10 -3 6 1 10 9 10 9 0 16 -4 16 -10z m260
0 c12 -8 11 -10 -7 -10 -13 0 -23 5 -23 10 0 13 11 13 30 0z m-1893 -6 c-3 -3
-12 -4 -19 -1 -8 3 -5 6 6 6 11 1 17 -2 13 -5z m1673 -4 c8 -5 11 -10 5 -10
-5 0 -17 5 -25 10 -8 5 -10 10 -5 10 6 0 17 -5 25 -10z m-1720 -4 c0 -3 -4 -8
-10 -11 -5 -3 -10 -1 -10 4 0 6 5 11 10 11 6 0 10 -2 10 -4z m120 -6 c13 -8
13 -10 -2 -10 -9 0 -20 5 -23 10 -8 13 5 13 25 0z m455 0 c3 -5 -1 -10 -10
-10 -9 0 -13 5 -10 10 3 6 8 10 10 10 2 0 7 -4 10 -10z m345 6 c0 -2 -7 -7
-16 -10 -8 -3 -12 -2 -9 4 6 10 25 14 25 6z m695 -5 c3 -5 1 -12 -5 -16 -5 -3
-10 1 -10 9 0 18 6 21 15 7z m410 -11 c10 -11 15 -20 12 -20 -4 0 -16 9 -27
20 -11 11 -16 20 -12 20 5 0 17 -9 27 -20z m-1985 1 c0 -11 -31 -24 -38 -16
-3 3 0 5 7 5 7 0 9 5 6 10 -3 6 1 10 9 10 9 0 16 -4 16 -9z m125 -1 c3 -5 -1
-10 -9 -10 -9 0 -16 5 -16 10 0 6 4 10 9 10 6 0 13 -4 16 -10z m1489 -11 c-3
-5 -10 -7 -15 -3 -5 3 -7 10 -3 15 3 5 10 7 15 3 5 -3 7 -10 3 -15z m271 11
c3 -5 -1 -10 -9 -10 -8 0 -18 5 -21 10 -3 6 1 10 9 10 8 0 18 -4 21 -10z
m-1800 -15 c43 -15 37 -19 -14 -9 -17 4 -31 10 -31 15 0 11 -3 11 45 -6z m56
-12 c-12 -20 -14 -14 -5 12 4 9 9 14 11 11 3 -2 0 -13 -6 -23z m636 21 c-3 -3
-12 -4 -19 -1 -8 3 -5 6 6 6 11 1 17 -2 13 -5z m868 -4 c3 -5 1 -10 -4 -10 -6
0 -11 5 -11 10 0 6 2 10 4 10 3 0 8 -4 11 -10z m138 3 c-7 -2 -19 -2 -25 0 -7
3 -2 5 12 5 14 0 19 -2 13 -5z m137 -3 c0 -5 -5 -10 -11 -10 -5 0 -7 5 -4 10
3 6 8 10 11 10 2 0 4 -4 4 -10z m-2026 -9 c19 -7 19 -8 -2 -13 -12 -4 -20 -2
-17 2 3 5 -1 11 -7 13 -7 3 -8 5 -3 6 6 0 19 -4 29 -8z m306 -1 c0 -13 -11
-13 -30 0 -12 8 -11 10 8 10 12 0 22 -4 22 -10z m665 0 c3 -5 1 -10 -4 -10 -6
0 -11 5 -11 10 0 6 2 10 4 10 3 0 8 -4 11 -10z m402 -6 c-3 -3 -12 -4 -19 -1
-8 3 -5 6 6 6 11 1 17 -2 13 -5z m693 2 c0 -11 -19 -15 -25 -6 -3 5 1 10 9 10
9 0 16 -2 16 -4z m-1770 -16 c12 -8 9 -10 -12 -10 -16 0 -28 5 -28 10 0 13 20
13 40 0z m-240 -30 c8 -5 11 -10 5 -10 -5 0 -17 5 -25 10 -8 5 -10 10 -5 10 6
0 17 -5 25 -10z m1110 0 c0 -5 -5 -10 -11 -10 -5 0 -7 5 -4 10 3 6 8 10 11 10
2 0 4 -4 4 -10z m-640 -30 c0 -5 -5 -10 -11 -10 -5 0 -7 5 -4 10 3 6 8 10 11
10 2 0 4 -4 4 -10z m-410 -4 c0 -2 -9 -6 -20 -9 -11 -3 -18 -1 -14 4 5 9 34
13 34 5z m1200 -6 c0 -5 -4 -10 -10 -10 -5 0 -10 5 -10 10 0 6 5 10 10 10 6 0
10 -4 10 -10z m-1150 -4 c0 -2 -9 -6 -20 -9 -11 -3 -18 -1 -14 4 5 9 34 13 34
5z m1296 -12 c-3 -9 -6 -18 -6 -20 0 -2 -5 -4 -11 -4 -8 0 -9 4 0 13 6 8 8 17
4 20 -3 4 -1 7 6 7 8 0 11 -6 7 -16z m-1187 -20 c9 -9 -53 7 -63 17 -5 5 5 4
24 -1 18 -5 35 -12 39 -16z m-129 -11 c3 -3 -9 -4 -25 -2 -17 2 -36 0 -43 -4
-8 -5 -12 -2 -12 8 0 13 7 15 38 9 20 -4 39 -9 42 -11z m1765 7 c8 -13 -5 -13
-25 0 -13 8 -13 10 2 10 9 0 20 -4 23 -10z m35 -4 c0 -3 -4 -8 -10 -11 -5 -3
-10 -1 -10 4 0 6 5 11 10 11 6 0 10 -2 10 -4z m43 -13 c-7 -2 -19 -2 -25 0 -7
3 -2 5 12 5 14 0 19 -2 13 -5z m-107 -18 c-11 -8 -14 -15 -8 -15 7 0 12 -4 12
-9 0 -4 -11 -6 -25 -3 -32 6 -32 16 3 29 37 15 40 15 18 -2z m-1627 -11 c2 -2
2 -7 -2 -10 -9 -10 -77 5 -77 17 0 9 68 3 79 -7z m1038 1 c0 -8 -4 -15 -9 -15
-10 0 -11 14 -1 23 9 10 10 9 10 -8z m-447 -15 c0 -5 -2 -10 -4 -10 -3 0 -8 5
-11 10 -3 6 -1 10 4 10 6 0 11 -4 11 -10z m145 0 c3 -5 1 -10 -4 -10 -6 0 -11
5 -11 10 0 6 2 10 4 10 3 0 8 -4 11 -10z m-750 -22 c7 -7 -3 -8 -28 -4 -55 10
-71 -5 -22 -21 39 -13 39 -13 5 -8 -38 6 -63 25 -42 32 6 3 9 9 6 14 -8 13 67
0 81 -13z m1639 -7 c6 -8 -43 -13 -55 -5 -5 3 -7 9 -4 13 5 9 53 2 59 -8z
m-1180 -20 c3 -5 -1 -11 -9 -14 -9 -4 -12 -1 -8 9 6 16 10 17 17 5z m146 5 c0
-3 -4 -8 -10 -11 -5 -3 -10 -1 -10 4 0 6 5 11 10 11 6 0 10 -2 10 -4z m1010
-17 c0 -5 -11 -9 -25 -9 -24 0 -32 10 -19 22 8 8 44 -3 44 -13z m-1165 -29 c3
-5 -1 -10 -9 -10 -9 0 -16 5 -16 10 0 6 4 10 9 10 6 0 13 -4 16 -10z m1132 4
c-3 -3 -12 -4 -19 -1 -8 3 -5 6 6 6 11 1 17 -2 13 -5z m-410 -10 c-3 -3 -12
-4 -19 -1 -8 3 -5 6 6 6 11 1 17 -2 13 -5z m403 -14 c0 -5 -2 -10 -4 -10 -3 0
-8 5 -11 10 -3 6 -1 10 4 10 6 0 11 -4 11 -10z m40 -30 c-25 -36 -37 -43 -51
-34 -13 8 38 64 59 64 10 0 8 -8 -8 -30z m-1170 16 c0 -11 -19 -15 -25 -6 -3
5 1 10 9 10 9 0 16 -2 16 -4z m-450 -107 c0 -5 -7 -9 -15 -9 -9 0 -12 6 -9 15
6 15 24 11 24 -6z m1457 -25 c-3 -3 -12 -4 -19 -1 -8 3 -5 6 6 6 11 1 17 -2
13 -5z m-1183 -16 c-6 -9 -44 -6 -44 3 0 4 11 6 24 5 13 0 22 -4 20 -8z m596
-9 c0 -10 -12 -11 -34 -3 -25 10 -19 22 9 16 14 -2 25 -8 25 -13z m-497 -2 c4
3 7 1 7 -5 0 -6 -4 -14 -10 -17 -5 -3 -10 -2 -10 3 0 6 -9 8 -20 5 -11 -3 -28
-2 -37 2 -15 7 -13 9 12 15 17 3 35 3 41 -2 6 -4 14 -5 17 -1z m177 -11 c0
-10 -34 2 -38 13 -3 10 0 10 17 2 11 -7 21 -13 21 -15z m-422 5 c11 -7 11 -9
-1 -14 -16 -6 -27 0 -27 15 0 10 11 10 28 -1z m792 -8 c0 -3 -7 -3 -15 1 -8 3
-18 -1 -22 -8 -7 -11 -15 -11 -48 0 l-40 13 41 -5 c24 -3 45 -1 48 5 6 10 36
5 36 -6z m304 8 c13 -5 16 -10 9 -14 -7 -4 -14 -3 -17 2 -3 5 -15 7 -26 4 -11
-3 -20 0 -20 6 0 12 25 13 54 2z m141 -1 c3 -5 1 -10 -4 -10 -6 0 -11 5 -11
10 0 6 2 10 4 10 3 0 8 -4 11 -10z m-1171 -15 c-4 -8 -11 -15 -16 -15 -6 0 -5
6 2 15 7 8 14 15 16 15 2 0 1 -7 -2 -15z m275 -1 c1 -1 0 -7 -4 -13 -7 -12
-54 -4 -70 12 -7 7 -6 8 2 3 6 -3 15 -2 18 4 6 9 41 5 54 -6z m491 12 c0 -3
-4 -8 -10 -11 -5 -3 -10 -1 -10 4 0 6 5 11 10 11 6 0 10 -2 10 -4z m107 -2
c-3 -3 -12 -4 -19 -1 -8 3 -5 6 6 6 11 1 17 -2 13 -5z m38 -4 c3 -5 1 -10 -4
-10 -6 0 -11 5 -11 10 0 6 2 10 4 10 3 0 8 -4 11 -10z m-861 -15 c-4 -8 -14
-15 -23 -15 -14 1 -13 3 3 15 25 19 27 19 20 0z m789 4 c9 0 17 -5 17 -11 0
-6 -9 -8 -22 -3 -13 4 -31 7 -40 6 -10 0 -18 5 -18 11 0 6 9 8 23 3 12 -4 30
-7 40 -6z m-738 -9 c-19 -8 -19 -9 3 -9 12 -1 22 -6 22 -12 0 -7 -9 -9 -22 -5
-13 3 -27 6 -32 6 -5 0 -3 7 4 15 7 8 20 15 29 14 12 0 11 -2 -4 -9z m219 -5
c-6 -16 -34 -21 -34 -7 0 13 11 22 26 22 8 0 11 -6 8 -15z m153 9 c-3 -3 -12
-4 -19 -1 -8 3 -5 6 6 6 11 1 17 -2 13 -5z m518 -4 c8 -13 -5 -13 -25 0 -13 8
-13 10 2 10 9 0 20 -4 23 -10z m165 -12 c0 -6 -7 -7 -16 -4 -9 3 -18 6 -20 6
-3 0 -3 4 1 10 7 11 35 2 35 -12z m-806 4 c3 -5 -1 -9 -9 -9 -8 0 -12 4 -9 9
3 4 7 8 9 8 2 0 6 -4 9 -8z m171 -2 c-3 -5 -12 -7 -20 -3 -21 7 -19 13 6 13
11 0 18 -4 14 -10z m375 -5 c0 -9 -6 -12 -15 -9 -8 4 -12 10 -9 15 8 14 24 10
24 -6z m-494 -4 c9 8 14 8 14 1 0 -16 -16 -23 -34 -16 -9 3 -13 11 -9 17 5 8
8 7 11 -1 3 -10 7 -10 18 -1z m381 3 c-3 -3 -12 -4 -19 -1 -8 3 -5 6 6 6 11 1
17 -2 13 -5z m186 -3 c4 -1 7 -5 7 -11 0 -13 -37 -13 -45 0 -4 6 -11 7 -17 4
-6 -4 -8 -3 -5 3 3 5 16 9 29 7 13 -1 26 -3 31 -3z m-963 -36 c-20 -24 -31
-18 -18 10 8 17 15 22 21 16 7 -7 6 -15 -3 -26z m150 31 c0 -3 -4 -8 -10 -11
-5 -3 -10 -1 -10 4 0 6 5 11 10 11 6 0 10 -2 10 -4z m75 -6 c-3 -5 -1 -10 6
-10 9 0 10 -3 3 -10 -10 -10 -54 -2 -54 10 0 5 10 11 23 13 12 2 23 5 25 6 2
0 0 -3 -3 -9z m211 -17 c-10 -10 -19 5 -10 18 6 11 8 11 12 0 2 -7 1 -15 -2
-18z m214 16 c0 -14 -61 -15 -71 -2 -9 10 -3 12 30 10 22 -1 41 -5 41 -8z
m471 -7 c-7 -2 -18 1 -23 6 -8 8 -4 9 13 5 13 -4 18 -8 10 -11z m-626 -2 c3
-6 -1 -13 -10 -16 -19 -8 -30 0 -20 15 8 14 22 14 30 1z m505 6 c0 -3 -4 -8
-10 -11 -5 -3 -10 -1 -10 4 0 6 5 11 10 11 6 0 10 -2 10 -4z m-915 -15 c17 -7
17 -8 -7 -13 -15 -3 -25 -2 -23 3 3 4 -1 10 -7 12 -9 4 -8 5 2 6 8 0 24 -4 35
-8z m195 -13 c0 -13 -23 -5 -28 10 -2 7 2 10 12 6 9 -3 16 -11 16 -16z m660
12 c8 -5 11 -10 5 -10 -5 0 -17 5 -25 10 -8 5 -10 10 -5 10 6 0 17 -5 25 -10z
m-1280 -10 c0 -5 -2 -10 -4 -10 -3 0 -8 5 -11 10 -3 6 -1 10 4 10 6 0 11 -4
11 -10z m880 6 c0 -3 -4 -8 -10 -11 -5 -3 -10 -1 -10 4 0 6 5 11 10 11 6 0 10
-2 10 -4z m85 -18 c15 -13 -16 -29 -32 -16 -7 6 -21 8 -32 5 -14 -3 -17 0 -14
14 4 14 12 17 37 12 17 -3 35 -10 41 -15z m482 14 c20 -13 -8 -41 -32 -31 -18
7 -18 8 4 8 24 1 24 1 5 16 -14 11 -15 14 -4 15 8 0 20 -4 27 -8z m-1246 -19
c13 -16 12 -17 -3 -4 -17 13 -22 21 -14 21 2 0 10 -8 17 -17z m359 2 c0 -2
-16 -5 -35 -7 -25 -3 -31 -1 -24 8 7 9 59 8 59 -1z m130 5 c0 -5 -5 -10 -11
-10 -5 0 -7 5 -4 10 3 6 8 10 11 10 2 0 4 -4 4 -10z m400 6 c0 -2 -7 -7 -16
-10 -8 -3 -12 -2 -9 4 6 10 25 14 25 6z m-370 -10 c0 -3 -4 -8 -10 -11 -5 -3
-10 -1 -10 4 0 6 5 11 10 11 6 0 10 -2 10 -4z m310 -11 c-7 -9 -15 -13 -19
-10 -3 3 1 10 9 15 21 14 24 12 10 -5z m-280 -5 c0 -5 -7 -10 -16 -10 -8 0
-12 5 -9 10 3 6 10 10 16 10 5 0 9 -4 9 -10z m54 -11 c-7 -11 -34 -12 -34 -1
0 14 11 21 26 15 8 -3 11 -9 8 -14z m473 15 c-3 -3 -12 -4 -19 -1 -8 3 -5 6 6
6 11 1 17 -2 13 -5z m-837 -14 c0 -5 -2 -10 -4 -10 -3 0 -8 5 -11 10 -3 6 -1
10 4 10 6 0 11 -4 11 -10z m97 4 c-3 -3 -12 -4 -19 -1 -8 3 -5 6 6 6 11 1 17
-2 13 -5z m541 -2 c14 -9 6 -42 -10 -42 -7 0 -6 5 1 13 6 8 8 16 5 20 -9 9
-35 -4 -28 -14 3 -5 0 -9 -5 -9 -13 0 -13 3 -5 24 7 18 22 20 42 8z m-549 -18
c2 -2 -7 -4 -22 -4 -14 0 -29 5 -32 10 -6 10 42 4 54 -6z m58 10 c-3 -3 -12
-4 -19 -1 -8 3 -5 6 6 6 11 1 17 -2 13 -5z m104 -7 c-6 -8 -7 -18 -3 -22 4 -5
1 -5 -6 -1 -10 6 -10 11 -1 22 6 8 14 14 16 14 3 0 0 -6 -6 -13z m230 -2 c11
-4 19 -11 19 -17 0 -12 -68 -2 -86 13 -6 5 -14 6 -17 2 -4 -3 -7 -1 -7 5 0 12
50 10 91 -3z m334 5 c-12 -5 -14 -9 -6 -9 8 -1 12 -3 10 -6 -3 -2 -16 -1 -29
2 -22 6 -23 7 -4 14 27 11 54 10 29 -1z m-100 -10 c3 -5 1 -10 -4 -10 -6 0
-11 5 -11 10 0 6 2 10 4 10 3 0 8 -4 11 -10z m-575 -4 c0 -11 -19 -15 -25 -6
-3 5 1 10 9 10 9 0 16 -2 16 -4z m194 -5 c3 -5 0 -11 -7 -14 -8 -3 -14 1 -14
9 0 16 13 19 21 5z m641 -1 c-3 -5 -18 -9 -33 -9 l-27 1 30 8 c17 4 31 8 33 9
2 0 0 -3 -3 -9z m-781 -8 c3 -5 -1 -9 -9 -9 -8 0 -12 4 -9 9 3 4 7 8 9 8 2 0
6 -4 9 -8z m366 4 c0 -3 -4 -8 -10 -11 -5 -3 -10 -1 -10 4 0 6 5 11 10 11 6 0
10 -2 10 -4z m245 -6 c7 -12 -12 -12 -40 0 -18 8 -17 9 7 9 15 1 30 -3 33 -9z
m-570 -10 c3 -5 -1 -10 -10 -10 -9 0 -13 5 -10 10 3 6 8 10 10 10 2 0 7 -4 10
-10z m231 -8 c14 -8 14 -10 -5 -15 -12 -3 -19 -1 -15 4 3 5 -4 9 -15 9 -11 0
-23 5 -26 10 -8 12 35 7 61 -8z m172 5 c17 -1 5 -10 -18 -14 -11 -2 -20 1 -20
6 0 5 -10 7 -22 3 -15 -4 -19 -2 -13 7 4 8 17 10 34 6 14 -4 32 -8 39 -8z m69
7 c-3 -3 -12 -4 -19 -1 -8 3 -5 6 6 6 11 1 17 -2 13 -5z m-437 -8 c0 -3 -4 -8
-10 -11 -5 -3 -10 -1 -10 4 0 6 5 11 10 11 6 0 10 -2 10 -4z m539 -12 c2 -2
-10 -4 -27 -4 -17 0 -34 4 -37 10 -5 9 53 3 64 -6z m-494 -4 c-3 -5 -10 -10
-16 -10 -5 0 -9 5 -9 10 0 6 7 10 16 10 8 0 12 -4 9 -10z m380 0 c-3 -5 -13
-10 -21 -10 -8 0 -12 5 -9 10 3 6 13 10 21 10 8 0 12 -4 9 -10z m255 -6 c0
-11 -5 -14 -16 -10 -9 3 -20 6 -25 6 -5 0 -9 5 -9 10 0 6 11 10 25 10 16 0 25
-6 25 -16z m-530 -4 c-12 -8 -9 -10 12 -10 15 0 29 -4 32 -8 5 -8 -14 -9 -74
-4 -27 3 -25 20 3 25 38 7 42 7 27 -3z m345 -5 c11 -5 23 -9 27 -9 3 -1 9 -4
13 -8 4 -4 -8 -4 -27 -2 -48 7 -60 13 -53 24 4 6 9 9 13 7 4 -2 16 -8 27 -12z
m-728 -1 c-3 -3 -12 -4 -19 -1 -8 3 -5 6 6 6 11 1 17 -2 13 -5z m563 -6 c0 -5
-12 -5 -27 -2 -40 10 -42 15 -5 12 18 -1 32 -6 32 -10z m315 0 c5 4 5 2 2 -5
-4 -6 -1 -14 5 -16 8 -3 8 -6 2 -6 -6 -1 -19 9 -30 21 -12 14 -13 18 -3 10 9
-6 20 -8 24 -4z m-412 -23 c-3 -9 -8 -14 -10 -11 -3 3 -2 9 2 15 9 16 15 13 8
-4z m167 11 c0 -3 -4 -8 -10 -11 -5 -3 -10 -1 -10 4 0 6 5 11 10 11 6 0 10 -2
10 -4z m-257 -16 c9 0 17 -5 17 -10 0 -11 -45 -3 -70 12 -11 7 -8 8 10 4 14
-3 33 -6 43 -6z m137 -5 c0 -8 -4 -15 -9 -15 -13 0 -22 16 -14 24 11 11 23 6
23 -9z m215 -5 c2 -4 -6 -6 -18 -5 -12 1 -28 3 -35 4 -7 0 -11 5 -8 10 6 9 54
3 61 -9z m125 10 c8 -5 11 -10 5 -10 -5 0 -3 -5 5 -10 8 -5 10 -10 5 -10 -6 0
-18 9 -28 20 -18 21 -12 26 13 10z m-305 -10 c-3 -5 -10 -10 -16 -10 -5 0 -9
5 -9 10 0 6 7 10 16 10 8 0 12 -4 9 -10z m-603 -22 c-7 -7 -12 -8 -12 -2 0 6
3 14 7 17 3 4 9 5 12 2 2 -3 -1 -11 -7 -17z m45 7 c0 -8 -7 -15 -15 -15 -12 0
-12 3 -2 15 7 8 13 15 15 15 1 0 2 -7 2 -15z m614 -8 c-13 -13 -26 -3 -16 12
3 6 11 8 17 5 6 -4 6 -10 -1 -17z m-286 3 c-3 -5 -12 -10 -18 -10 -7 0 -6 4 3
10 19 12 23 12 15 0z m170 0 c3 -5 -1 -10 -10 -10 -9 0 -13 5 -10 10 3 6 8 10
10 10 2 0 7 -4 10 -10z m-120 -10 c-3 -5 -16 -10 -28 -9 -20 1 -20 2 3 9 14 4
26 8 28 9 2 1 0 -3 -3 -9z m160 0 c3 -5 -1 -10 -10 -10 -9 0 -13 5 -10 10 3 6
8 10 10 10 2 0 7 -4 10 -10z m170 -4 c20 -15 23 -14 -42 -7 -7 0 -13 6 -13 11
0 15 33 12 55 -4z m155 3 c12 -9 12 -10 -4 -5 -13 4 -17 2 -13 -8 8 -20 -10
-34 -38 -28 -34 6 -22 20 12 16 24 -4 25 -3 8 5 -14 7 -15 10 -5 10 13 1 13 2
0 11 -12 8 -12 10 5 10 11 0 27 -5 35 -11z m-780 -9 c0 -5 -4 -10 -9 -10 -6 0
-13 5 -16 10 -3 6 1 10 9 10 9 0 16 -4 16 -10z m44 -5 c-4 -8 -11 -15 -16 -15
-6 0 -5 6 2 15 7 8 14 15 16 15 2 0 1 -7 -2 -15z m476 -1 c0 -2 -11 -3 -24 -2
-14 1 -23 5 -20 9 4 7 44 0 44 -7z m-590 -8 c0 -3 -4 -8 -10 -11 -5 -3 -10 -1
-10 4 0 6 5 11 10 11 6 0 10 -2 10 -4z m684 -16 c5 -5 0 -7 -10 -5 -11 2 -27
4 -37 4 -10 1 -15 6 -12 11 7 11 43 4 59 -10z m-587 -16 c-3 -3 -12 -4 -19 -1
-8 3 -5 6 6 6 11 1 17 -2 13 -5z m214 -4 c10 0 19 -4 19 -8 0 -12 -59 -2 -67
11 -4 7 0 8 11 4 10 -4 26 -7 37 -7z m503 2 c2 -4 1 -14 -3 -20 -8 -14 -41 -6
-41 10 0 6 8 4 17 -3 15 -12 16 -12 10 4 -6 17 7 25 17 9z m-497 -45 c4 -6 -4
-7 -23 -2 -16 4 -34 8 -41 8 -7 0 -10 3 -8 7 6 10 64 -1 72 -13z m114 5 c-7
-2 -18 1 -23 6 -8 8 -4 9 13 5 13 -4 18 -8 10 -11z m185 -10 c-10 -2 -22 0
-28 6 -6 6 0 7 19 4 21 -5 23 -7 9 -10z m-406 -2 c0 -5 -5 -10 -11 -10 -5 0
-7 5 -4 10 3 6 8 10 11 10 2 0 4 -4 4 -10z m87 -24 c2 -2 -13 -3 -35 -3 -25 1
-38 6 -35 14 4 10 57 2 70 -11z m118 14 c3 -6 -4 -10 -17 -10 -18 0 -20 2 -8
10 19 12 18 12 25 0z m35 -10 c0 -5 -5 -10 -11 -10 -5 0 -7 5 -4 10 3 6 8 10
11 10 2 0 4 -4 4 -10z m313 -4 c4 -10 0 -12 -15 -8 -15 4 -17 7 -6 13 17 11
15 11 21 -5z m-146 -2 c-3 -3 -12 -4 -19 -1 -8 3 -5 6 6 6 11 1 17 -2 13 -5z
m-427 -14 c0 -5 -5 -10 -11 -10 -5 0 -7 5 -4 10 3 6 8 10 11 10 2 0 4 -4 4
-10z m210 -5 c0 -1 -11 -5 -25 -7 -20 -4 -23 -2 -14 8 8 10 39 10 39 -1z m107
9 c-3 -3 -12 -4 -19 -1 -8 3 -5 6 6 6 11 1 17 -2 13 -5z m78 -14 l20 -9 -20 0
c-11 0 -27 4 -35 9 -13 9 -13 10 0 9 8 0 24 -4 35 -9z m170 1 c3 -5 0 -13 -6
-17 -7 -4 -9 -3 -5 4 3 5 0 13 -6 15 -9 4 -10 6 -1 6 6 1 14 -3 18 -8z m-500
-11 c13 -5 14 -9 5 -9 -8 0 -24 4 -35 9 -13 5 -14 9 -5 9 8 0 24 -4 35 -9z
m460 -9 c-19 -8 -18 -9 5 -13 25 -5 25 -5 -2 -7 -27 -1 -35 8 -21 22 3 4 13 7
22 6 12 0 10 -3 -4 -8z m-126 -17 c2 -2 -5 -4 -17 -4 -11 0 -26 -2 -34 -3 -7
-2 -10 -2 -5 0 4 3 4 9 1 14 -5 9 44 2 55 -7z m-222 0 c-3 -3 -12 -4 -19 -1
-8 3 -5 6 6 6 11 1 17 -2 13 -5z m348 -23 c-6 -5 -21 -11 -35 -15 -21 -5 -20
-3 5 9 35 17 42 18 30 6z m-490 -11 l20 -9 -20 0 c-11 0 -27 4 -35 9 -13 9
-13 10 0 9 8 0 24 -4 35 -9z m80 -29 c-3 -5 5 -12 17 -14 20 -4 19 -4 -4 -6
-27 -1 -35 8 -21 22 9 10 15 8 8 -2z m109 -26 c-4 -8 -11 -15 -16 -15 -6 0 -5
6 2 15 7 8 14 15 16 15 2 0 1 -7 -2 -15z m252 -13 c-10 -2 -22 0 -28 6 -6 6 0
7 19 4 21 -5 23 -7 9 -10z m-350 -5 c10 -10 -17 -8 -41 3 -17 8 -16 9 7 7 15
-2 30 -6 34 -10z m184 3 c-13 -8 -12 -10 4 -10 11 0 17 -3 13 -6 -3 -3 -21 -2
-39 2 -32 7 -32 8 -8 15 36 10 47 10 30 -1z m-95 -20 c3 -6 -1 -7 -9 -4 -18 7
-21 14 -7 14 6 0 13 -4 16 -10z m231 -9 c-4 -5 0 -12 6 -14 7 -3 3 -6 -9 -6
-25 -1 -31 14 -10 22 18 8 19 8 13 -2z m-337 -17 c11 -10 -13 -20 -43 -16 -25
3 -33 8 -29 19 4 10 14 12 37 7 17 -3 33 -8 35 -10z m196 7 c3 -5 0 -13 -6
-17 -7 -4 -9 -3 -5 4 4 6 -5 12 -21 15 l-28 4 27 2 c15 0 29 -3 33 -8z m-137
-24 c13 4 14 3 6 -6 -13 -14 -47 -3 -37 12 5 8 8 8 10 0 3 -7 12 -9 21 -6z
m87 -7 c-3 -5 1 -10 10 -10 23 0 13 -24 -11 -27 -18 -3 -18 -2 1 6 18 9 17 10
-7 10 -16 1 -28 6 -28 12 0 5 5 7 10 4 6 -3 10 -1 10 4 0 6 5 11 11 11 5 0 7
-4 4 -10z m181 -1 c11 -18 -18 -38 -41 -29 -19 8 -19 9 3 9 24 1 30 16 10 24
-8 3 -7 6 4 6 9 1 20 -4 24 -10z m39 -19 c-3 -5 -12 -10 -18 -10 -7 0 -6 4 3
10 19 12 23 12 15 0z m-315 -14 c0 -2 -7 -7 -16 -10 -8 -3 -12 -2 -9 4 6 10
25 14 25 6z m65 -6 c-3 -5 -12 -10 -18 -10 -7 0 -6 4 3 10 19 12 23 12 15 0z
m35 -15 c0 -6 -73 -25 -78 -20 -2 2 11 8 29 14 41 11 49 12 49 6z m145 -5 c4
-6 -5 -10 -19 -10 -14 0 -26 5 -26 10 0 6 9 10 19 10 11 0 23 -4 26 -10z m45
-6 c0 -8 -19 -13 -24 -6 -3 5 1 9 9 9 8 0 15 -2 15 -3z m-223 -28 c0 -8 -6
-12 -15 -9 -11 5 -11 7 0 14 7 5 13 9 14 9 0 0 1 -6 1 -14z m153 0 c0 -2 -9
-6 -20 -9 -11 -3 -18 -1 -14 4 5 9 34 13 34 5z m-183 -44 c0 -7 -7 -10 -14 -7
-8 3 -19 5 -24 5 -5 0 -9 3 -9 8 0 4 11 7 23 7 13 0 24 -6 24 -13z m160 12
c-3 -3 -12 -4 -19 -1 -8 3 -5 6 6 6 11 1 17 -2 13 -5z m-32 -34 c-3 -5 -12
-10 -18 -10 -7 0 -6 4 3 10 19 12 23 12 15 0z m-145 -9 c0 -4 -11 -6 -25 -3
-14 2 -25 6 -25 8 0 2 11 4 25 4 14 0 25 -4 25 -9z m257 -7 c-3 -3 -12 -4 -19
-1 -8 3 -5 6 6 6 11 1 17 -2 13 -5z m-346 -27 c-10 -9 -11 -8 -5 6 3 10 9 15
12 12 3 -3 0 -11 -7 -18z m69 7 c0 -2 -9 -4 -20 -4 -11 0 -20 4 -20 9 0 5 9 7
20 4 11 -3 20 -7 20 -9z m70 1 c-7 -8 -17 -15 -23 -15 -6 0 -2 7 9 15 25 19
30 19 14 0z m84 -17 c-3 -4 -11 -5 -19 -1 -21 7 -19 12 4 10 11 0 18 -5 15 -9z
m-164 -18 c0 -4 -11 -7 -25 -7 -24 0 -31 7 -19 19 7 8 44 -2 44 -12z m137 -6
c-3 -3 -12 -4 -19 -1 -8 3 -5 6 6 6 11 1 17 -2 13 -5z m-163 -23 c3 -5 -1 -14
-9 -21 -13 -10 -15 -9 -15 9 0 21 14 28 24 12z m159 2 c-7 -2 -19 -2 -25 0 -7
3 -2 5 12 5 14 0 19 -2 13 -5z m-93 -23 c0 -5 -5 -10 -11 -10 -5 0 -7 5 -4 10
3 6 8 10 11 10 2 0 4 -4 4 -10z m77 3 c-9 -2 -15 -9 -12 -14 4 -5 -1 -9 -9 -9
-10 0 -13 6 -10 15 4 8 16 14 28 14 17 -1 17 -2 3 -6z m-47 -13 c0 -5 -4 -10
-10 -10 -5 0 -10 5 -10 10 0 6 5 10 10 10 6 0 10 -4 10 -10z m121 -13 c-10 -9
-11 -8 -5 6 3 10 9 15 12 12 3 -3 0 -11 -7 -18z m-149 -39 c-7 -7 -12 -8 -12
-2 0 14 12 26 19 19 2 -3 -1 -11 -7 -17z m36 -2 c-8 -6 -13 -16 -11 -22 2 -6
-3 -11 -12 -11 -18 0 -18 0 -4 31 8 16 17 22 27 19 13 -6 13 -8 0 -17z m93 1
c-10 -9 -11 -8 -5 6 3 10 9 15 12 12 3 -3 0 -11 -7 -18z m-47 5 c3 -5 -1 -9
-9 -9 -8 0 -12 4 -9 9 3 4 7 8 9 8 2 0 6 -4 9 -8z m46 -30 c0 -17 -27 -45 -40
-40 -10 3 -9 8 3 20 9 8 13 18 10 22 -4 3 1 6 10 6 10 0 17 -4 17 -8z m4 -86
c-3 -8 -14 -12 -25 -9 -18 5 -18 6 -2 18 21 15 34 10 27 -9z m-24 -47 c-7 -11
-14 -18 -17 -15 -3 3 0 12 7 21 18 21 23 19 10 -6z"/>
<path d="M3664 3986 c3 -16 11 -33 18 -38 7 -4 9 -8 3 -8 -6 0 -6 -3 1 -8 6
-4 21 -28 34 -54 13 -27 27 -48 32 -48 4 0 8 -5 8 -11 0 -9 73 -117 110 -162
40 -49 50 -59 50 -52 0 4 -15 26 -33 49 -33 41 -167 241 -167 249 0 2 -14 28
-30 58 -24 43 -29 48 -26 25z"/>
<path d="M3942 3565 c12 -14 23 -25 25 -25 2 0 -4 11 -13 25 -9 14 -20 25 -25
25 -5 0 1 -11 13 -25z"/>
<path d="M3970 3526 c0 -2 8 -10 18 -17 15 -13 16 -12 3 4 -13 16 -21 21 -21
13z"/>
<path d="M3895 3460 c-18 -8 -18 -9 5 -10 14 -1 35 -3 48 -6 25 -4 30 11 6 20
-20 8 -34 7 -59 -4z"/>
<path d="M879 3273 c-13 -16 -12 -17 4 -4 9 7 17 15 17 17 0 8 -8 3 -21 -13z"/>
<path d="M839 3233 c-13 -16 -12 -17 4 -4 9 7 17 15 17 17 0 8 -8 3 -21 -13z"/>
<path d="M779 3173 c-13 -16 -12 -17 4 -4 9 7 17 15 17 17 0 8 -8 3 -21 -13z"/>
<path d="M1100 2826 c0 -2 8 -10 18 -17 15 -13 16 -12 3 4 -13 16 -21 21 -21
13z"/>
<path d="M1405 2520 c10 -11 20 -20 23 -20 3 0 -3 9 -13 20 -10 11 -20 20 -23
20 -3 0 3 -9 13 -20z"/>
<path d="M1500 2415 c13 -14 26 -25 28 -25 3 0 -5 11 -18 25 -13 14 -26 25
-28 25 -3 0 5 -11 18 -25z"/>
<path d="M1470 2186 c0 -2 8 -10 18 -17 15 -13 16 -12 3 4 -13 16 -21 21 -21
13z"/>
<path d="M3079 2172 c11 -8 11 -10 0 -15 -8 -3 -4 -6 9 -6 28 -1 25 23 -4 27
-14 2 -16 1 -5 -6z"/>
<path d="M2340 895 c0 -5 5 -17 10 -25 5 -8 10 -10 10 -5 0 6 -5 17 -10 25 -5
8 -10 11 -10 5z"/>
<path d="M2366 837 c3 -10 9 -15 12 -12 3 3 0 11 -7 18 -10 9 -11 8 -5 -6z"/>
</g>
</svg>
